<?xml version="1.0" encoding="utf-8"?>
<!-- Generator: Adobe Illustrator 27.4.1, SVG Export Plug-In . SVG Version: 6.00 Build 0)  -->
<svg version="1.1" id="Layer_1" xmlns="http://www.w3.org/2000/svg" xmlns:xlink="http://www.w3.org/1999/xlink" x="0px" y="0px"
	 viewBox="0 0 300 200" style="enable-background:new 0 0 300 200;" xml:space="preserve">
<style type="text/css">
	.st0{fill:#F58220;}
</style>
<path class="st0" d="M160.99,35.62l-14.67,0.31l-1.44,4.66l-8.84,0.2l-0.62,1.73c-25.1,0.78-48.69,13.44-56.37,19.41l50.1-1.92
	l-1.23,4.02l12.95-0.28l-20.6,93.91l17.87-5.71l17.22-88.52l9.8-0.21l1.22-4.47l63.83-1.73c-11.9-7.21-42.19-15.09-59.26-14.88
	l0.58-2.12l-11.46,0.25L160.99,35.62z"/>
<path class="st0" d="M152.82,145.11c0,1.55-1.26,2.8-2.81,2.8c-1.55,0-2.8-1.25-2.8-2.8c0-1.55,1.25-2.8,2.8-2.8
	C151.56,142.31,152.82,143.56,152.82,145.11 M152.17,145.11c0-1.24-0.96-2.24-2.16-2.24c-1.19,0-2.15,1-2.15,2.24
	c0,1.23,0.96,2.24,2.15,2.24C151.21,147.35,152.17,146.34,152.17,145.11 M150.65,145.49l0.58,1.07h-0.6l-0.49-1h-0.6v0.99h-0.56
	v-2.93h1.18c0.7,0,1.01,0.29,1.05,0.82c0.01,0.08,0.01,0.14,0,0.22C151.18,145.07,151,145.36,150.65,145.49 M150.15,145.06
	c0.31,0,0.48-0.16,0.51-0.41v-0.2c-0.03-0.23-0.19-0.36-0.51-0.36h-0.64v0.97H150.15z"/>
</svg>
