<?xml version="1.0" encoding="utf-8"?>
<!-- Generator: Adobe Illustrator 27.4.1, SVG Export Plug-In . SVG Version: 6.00 Build 0)  -->
<svg version="1.1" id="Layer_1" xmlns="http://www.w3.org/2000/svg" xmlns:xlink="http://www.w3.org/1999/xlink" x="0px" y="0px"
	 viewBox="0 0 300 200" style="enable-background:new 0 0 300 200;" xml:space="preserve">
<style type="text/css">
	.st0{fill:#B4B3B2;}
</style>
<path class="st0" d="M165.07,29.09l-15.52,0.33l-1.52,4.93l-9.35,0.21l-0.65,1.84c-26.55,0.82-51.5,14.22-59.63,20.53l52.99-2.03
	l-1.3,4.25l13.7-0.3l-21.79,99.34l18.9-6.04l18.21-93.64l10.37-0.23l1.3-4.73l67.52-1.83c-12.59-7.63-44.62-15.96-62.69-15.74
	l0.62-2.25l-12.13,0.26L165.07,29.09z"/>
<path class="st0" d="M156.43,144.91c0,1.64-1.33,2.96-2.97,2.96c-1.64,0-2.96-1.32-2.96-2.96s1.32-2.96,2.96-2.96
	C155.1,141.95,156.43,143.27,156.43,144.91 M155.74,144.91c0-1.31-1.02-2.37-2.28-2.37c-1.25,0-2.28,1.05-2.28,2.37
	c0,1.31,1.02,2.37,2.28,2.37C154.72,147.28,155.74,146.22,155.74,144.91 M154.13,145.31l0.62,1.13h-0.64l-0.52-1.05h-0.64v1.04
	h-0.59v-3.1h1.25c0.74,0,1.07,0.3,1.11,0.87c0.01,0.09,0.01,0.15,0,0.23C154.69,144.87,154.5,145.17,154.13,145.31 M153.61,144.86
	c0.33,0,0.51-0.17,0.54-0.44v-0.21c-0.03-0.25-0.2-0.38-0.54-0.38h-0.67v1.03H153.61z"/>
</svg>
