<?xml version="1.0" encoding="utf-8"?>
<!-- Generator: Adobe Illustrator 27.4.1, SVG Export Plug-In . SVG Version: 6.00 Build 0)  -->
<svg version="1.1" id="Layer_1" xmlns="http://www.w3.org/2000/svg" xmlns:xlink="http://www.w3.org/1999/xlink" x="0px" y="0px"
	 viewBox="0 0 300 200" style="enable-background:new 0 0 300 200;" xml:space="preserve">
<style type="text/css">
	.st0{fill:#010101;}
</style>
<path class="st0" d="M165.15,33.3l-14.4,0.31l-1.41,4.58l-8.67,0.2l-0.61,1.7c-24.64,0.76-47.79,13.19-55.32,19.05l49.17-1.89
	l-1.2,3.94l12.71-0.28l-20.22,92.17l17.54-5.61l16.9-86.88l9.62-0.21l1.2-4.39l62.64-1.69c-11.68-7.08-41.4-14.81-58.16-14.6
	l0.57-2.09l-11.25,0.25L165.15,33.3z"/>
<path class="st0" d="M157.13,140.75c0,1.52-1.24,2.75-2.76,2.75c-1.52,0-2.75-1.23-2.75-2.75s1.23-2.75,2.75-2.75
	C155.9,138.01,157.13,139.23,157.13,140.75 M156.5,140.75c0-1.22-0.95-2.2-2.12-2.2c-1.16,0-2.11,0.98-2.11,2.2
	c0,1.21,0.95,2.2,2.11,2.2C155.55,142.95,156.5,141.97,156.5,140.75 M155,141.13l0.57,1.05h-0.59l-0.48-0.98h-0.59v0.97h-0.55v-2.88
	h1.16c0.69,0,0.99,0.28,1.03,0.81c0.01,0.08,0.01,0.14,0,0.21C155.52,140.71,155.35,141,155,141.13 M154.52,140.71
	c0.31,0,0.48-0.15,0.5-0.41v-0.19c-0.03-0.23-0.19-0.36-0.5-0.36h-0.62v0.95H154.52z"/>
</svg>
