<?xml version="1.0" encoding="utf-8"?>
<!-- Generator: Adobe Illustrator 27.4.1, SVG Export Plug-In . SVG Version: 6.00 Build 0)  -->
<svg version="1.1" id="Layer_1" xmlns="http://www.w3.org/2000/svg" xmlns:xlink="http://www.w3.org/1999/xlink" x="0px" y="0px"
	 viewBox="0 0 300 200" style="enable-background:new 0 0 300 200;" xml:space="preserve">
<style type="text/css">
	.st0{fill:#F28221;}
	.st1{fill:#FFFFFF;}
	.st2{fill:#4D4D4F;}
</style>
<rect x="111.62" y="25.66" class="st0" width="80.55" height="67.63"/>
<path class="st1" d="M154.07,41.75l-4.25,0.09l-0.42,1.35l-2.56,0.06l-0.18,0.5c-7.27,0.23-14.1,3.89-16.33,5.62l14.51-0.56
	l-0.36,1.16l3.75-0.08l-5.97,27.2l5.18-1.65l4.99-25.64l2.84-0.06l0.36-1.29l18.49-0.5c-3.45-2.09-12.22-4.37-17.16-4.31l0.17-0.62
	l-3.32,0.07L154.07,41.75z"/>
<path class="st1" d="M150.94,73.45c0.09,0,0.14-0.05,0.15-0.12v-0.06c-0.01-0.07-0.06-0.11-0.15-0.11h-0.19v0.28H150.94z
	 M151.08,73.58l0.17,0.31h-0.17l-0.14-0.29h-0.17v0.29h-0.16v-0.85h0.34c0.2,0,0.29,0.08,0.3,0.24c0,0.02,0,0.04,0,0.06
	C151.23,73.46,151.18,73.54,151.08,73.58 M151.52,73.47c0-0.36-0.28-0.65-0.62-0.65c-0.34,0-0.62,0.29-0.62,0.65
	c0,0.36,0.28,0.65,0.62,0.65C151.24,74.12,151.52,73.83,151.52,73.47 M151.71,73.47c0,0.45-0.37,0.81-0.81,0.81
	s-0.81-0.36-0.81-0.81c0-0.45,0.36-0.81,0.81-0.81S151.71,73.02,151.71,73.47"/>
<polygon class="st2" points="27.15,138.38 27.15,119.21 24.1,119.21 24.1,116.13 33.61,116.13 33.61,119.21 30.55,119.21 
	30.55,138.38 "/>
<polygon class="st2" points="43.36,125.51 43.36,116.13 46.77,116.13 46.77,138.38 43.36,138.38 43.36,128.59 40.09,128.59 
	40.09,138.38 36.69,138.38 36.69,116.13 40.09,116.13 40.09,125.51 "/>
<polygon class="st2" points="58.11,116.13 58.11,119.21 53.94,119.21 53.94,125.51 57.95,125.51 57.95,128.59 53.94,128.59 
	53.94,135.3 58.17,135.3 58.17,138.38 50.54,138.38 50.54,116.13 "/>
<path class="st2" d="M77.4,134.44c0,2.77-1.37,4.13-4.14,4.13h-1.65c-2.77,0-4.14-1.37-4.14-4.13v-18.31h3.4v18.15
	c0,0.89,0.41,1.3,1.3,1.3h0.54c0.86,0,1.27-0.41,1.27-1.3v-18.15h3.4V134.44z"/>
<polygon class="st2" points="87.64,138.38 84.17,123.41 84.2,127.32 84.2,138.38 81.15,138.38 81.15,116.13 85.12,116.13 
	88.3,129.86 88.27,126.14 88.27,116.13 91.32,116.13 91.32,138.38 "/>
<rect x="95.13" y="116.13" class="st2" width="3.4" height="22.26"/>
<polygon class="st2" points="104.99,138.42 101.71,116.13 105.15,116.13 107.15,132.72 109.22,116.13 112.46,116.13 109.16,138.42 
	"/>
<polygon class="st2" points="123.14,116.13 123.14,119.21 118.97,119.21 118.97,125.51 122.98,125.51 122.98,128.59 118.97,128.59 
	118.97,135.3 123.2,135.3 123.2,138.38 115.57,138.38 115.57,116.13 "/>
<path class="st2" d="M131.82,119.15h-1.65v7.34h1.53c0.95,0,1.4-0.44,1.4-1.37v-4.7C133.09,119.56,132.67,119.15,131.82,119.15
	 M136.52,130.82v7.57h-3.4v-7.5c0-0.99-0.44-1.43-1.43-1.43h-1.53v8.93h-3.4v-22.26h5.6c2.76,0,4.13,1.37,4.13,4.13v4.2
	c0,1.97-0.7,2.92-1.94,3.43C135.95,128.27,136.52,129.13,136.52,130.82"/>
<path class="st2" d="M149.87,130.82v3.62c0,2.77-1.37,4.13-4.14,4.13h-1.49c-2.77,0-4.1-1.37-4.1-4.1v-4.71h3.31v4.58
	c0,0.86,0.41,1.27,1.3,1.27h0.44c0.89,0,1.3-0.41,1.3-1.27v-3.05c0-0.92-0.32-1.33-0.96-1.81l-3.43-2.51
	c-1.52-1.08-1.97-2.13-1.97-3.85v-3.05c0-2.76,1.37-4.13,4.13-4.13h1.43c2.73,0,4.1,1.37,4.1,4.1v4.04h-3.34v-3.91
	c0-0.86-0.41-1.27-1.27-1.27h-0.41c-0.86,0-1.27,0.41-1.27,1.27v2.48c0,0.92,0.32,1.37,0.96,1.81l3.43,2.51
	C149.39,128.05,149.87,129,149.87,130.82"/>
<rect x="153.49" y="116.13" class="st2" width="3.4" height="22.26"/>
<polygon class="st2" points="163.06,138.38 163.06,119.21 160,119.21 160,116.13 169.51,116.13 169.51,119.21 166.46,119.21 
	166.46,138.38 "/>
<polygon class="st2" points="178.6,130.47 178.6,138.38 175.19,138.38 175.19,130.82 171.54,116.13 175.04,116.13 176.94,125.6 
	178.98,116.13 182.25,116.13 "/>
<path class="st2" d="M196.24,118.92h-0.7c-0.89,0-1.3,0.41-1.3,1.3v14.05c0,0.89,0.41,1.3,1.3,1.3h0.7c0.86,0,1.27-0.41,1.27-1.3
	v-14.05C197.51,119.34,197.09,118.92,196.24,118.92 M196.78,138.57h-1.81c-2.76,0-4.13-1.37-4.13-4.13v-14.37
	c0-2.77,1.37-4.13,4.13-4.13h1.81c2.76,0,4.13,1.37,4.13,4.13v14.37C200.91,137.21,199.54,138.57,196.78,138.57"/>
<polygon class="st2" points="212.03,116.13 212.03,119.21 208.03,119.21 208.03,125.63 211.88,125.63 211.88,128.72 208.03,128.72 
	208.03,138.38 204.63,138.38 204.63,116.13 "/>
<polygon class="st2" points="223.6,138.38 223.6,119.21 220.55,119.21 220.55,116.13 230.06,116.13 230.06,119.21 227,119.21 
	227,138.38 "/>
<polygon class="st2" points="240.7,116.13 240.7,119.21 236.54,119.21 236.54,125.51 240.54,125.51 240.54,128.59 236.54,128.59 
	236.54,135.3 240.77,135.3 240.77,138.38 233.14,138.38 233.14,116.13 "/>
<polygon class="st2" points="251.16,127.13 254.28,138.38 250.78,138.38 248.9,130.4 246.9,138.38 243.62,138.38 246.74,127.41 
	243.69,116.13 247.18,116.13 249.03,124.08 250.94,116.13 254.21,116.13 "/>
<path class="st2" d="M260.28,131.87h2.77l-1.4-11.26L260.28,131.87z M267.24,138.38h-3.37l-0.45-3.5h-3.53l-0.41,3.5h-3.15
	l3.18-22.29h4.52L267.24,138.38z"/>
<path class="st2" d="M279.86,130.82v3.62c0,2.77-1.37,4.13-4.14,4.13h-1.49c-2.77,0-4.1-1.37-4.1-4.1v-4.71h3.31v4.58
	c0,0.86,0.41,1.27,1.3,1.27h0.44c0.89,0,1.3-0.41,1.3-1.27v-3.05c0-0.92-0.32-1.33-0.96-1.81l-3.43-2.51
	c-1.52-1.08-1.97-2.13-1.97-3.85v-3.05c0-2.76,1.37-4.13,4.13-4.13h1.43c2.73,0,4.1,1.37,4.1,4.1v4.04h-3.34v-3.91
	c0-0.86-0.41-1.27-1.27-1.27h-0.41c-0.86,0-1.27,0.41-1.27,1.27v2.48c0,0.92,0.32,1.37,0.96,1.81l3.43,2.51
	C279.38,128.05,279.86,129,279.86,130.82"/>
<path class="st2" d="M102.65,163.65h2.77l-1.4-11.26L102.65,163.65z M109.62,170.17h-3.37l-0.45-3.5h-3.53l-0.41,3.5h-3.15
	l3.18-22.29h4.52L109.62,170.17z"/>
<polygon class="st2" points="113.84,170.17 113.84,151 110.79,151 110.79,147.91 120.3,147.91 120.3,151 117.24,151 117.24,170.17 
	"/>
<polygon class="st2" points="136.73,147.91 136.73,150.99 132.56,150.99 132.56,157.29 136.57,157.29 136.57,160.38 132.56,160.38 
	132.56,167.08 136.79,167.08 136.79,170.17 129.16,170.17 129.16,147.91 "/>
<polygon class="st2" points="143.75,147.91 143.75,167.08 147.5,167.08 147.5,170.17 140.34,170.17 140.34,147.91 "/>
<path class="st2" d="M161.39,150.9h-1.4v8.2h1.4c0.86,0,1.27-0.41,1.27-1.3v-5.59C162.66,151.31,162.25,150.9,161.39,150.9
	 M159.99,170.17h-3.4v-22.26h5.34c2.76,0,4.13,1.37,4.13,4.13v5.91c0,2.77-1.37,4.13-4.13,4.13h-1.94V170.17z"/>
<path class="st2" d="M172,163.65h2.77l-1.4-11.26L172,163.65z M178.97,170.17h-3.37l-0.45-3.5h-3.53l-0.41,3.5h-3.15l3.18-22.29
	h4.52L178.97,170.17z"/>
<path class="st2" d="M191.58,162.6v3.62c0,2.77-1.37,4.13-4.14,4.13h-1.49c-2.77,0-4.1-1.37-4.1-4.1v-4.71h3.31v4.58
	c0,0.86,0.41,1.27,1.3,1.27h0.44c0.89,0,1.3-0.41,1.3-1.27v-3.05c0-0.92-0.32-1.33-0.96-1.81l-3.43-2.51
	c-1.52-1.08-1.97-2.13-1.97-3.85v-3.05c0-2.77,1.37-4.13,4.13-4.13h1.43c2.73,0,4.1,1.37,4.1,4.1v4.04h-3.34v-3.91
	c0-0.86-0.41-1.27-1.27-1.27h-0.41c-0.86,0-1.27,0.41-1.27,1.27v2.48c0,0.92,0.32,1.37,0.96,1.81l3.43,2.51
	C191.11,159.83,191.58,160.79,191.58,162.6"/>
<path class="st2" d="M200.51,150.71h-0.7c-0.89,0-1.3,0.41-1.3,1.3v14.05c0,0.89,0.41,1.3,1.3,1.3h0.7c0.86,0,1.27-0.41,1.27-1.3
	v-14.05C201.78,151.12,201.37,150.71,200.51,150.71 M201.05,170.36h-1.81c-2.77,0-4.13-1.37-4.13-4.13v-14.37
	c0-2.77,1.37-4.13,4.13-4.13h1.81c2.77,0,4.13,1.36,4.13,4.13v14.37C205.19,168.99,203.82,170.36,201.05,170.36"/>
</svg>
