<?xml version="1.0" encoding="utf-8"?>
<!-- Generator: Adobe Illustrator 27.4.1, SVG Export Plug-In . SVG Version: 6.00 Build 0)  -->
<svg version="1.1" id="Layer_1" xmlns="http://www.w3.org/2000/svg" xmlns:xlink="http://www.w3.org/1999/xlink" x="0px" y="0px"
	 viewBox="0 0 300 200" style="enable-background:new 0 0 300 200;" xml:space="preserve">
<style type="text/css">
	.st0{fill:#F28221;}
	.st1{fill:#FFFFFF;}
	.st2{fill:#4D4D4F;}
</style>
<rect x="20.68" y="72.46" class="st0" width="44.69" height="37.52"/>
<path class="st1" d="M44.24,81.39l-2.36,0.05l-0.23,0.75l-1.42,0.03l-0.1,0.28c-4.03,0.13-7.83,2.16-9.06,3.12l8.05-0.31l-0.2,0.65
	l2.08-0.05l-3.31,15.09l2.87-0.92l2.77-14.23l1.58-0.03l0.2-0.72l10.26-0.28c-1.91-1.16-6.78-2.43-9.52-2.39l0.09-0.34l-1.84,0.04
	L44.24,81.39z"/>
<path class="st1" d="M42.5,98.98c0.05,0,0.08-0.03,0.08-0.07v-0.03c0-0.04-0.03-0.06-0.08-0.06h-0.1v0.16H42.5z M42.58,99.05
	l0.09,0.17h-0.1l-0.08-0.16h-0.1v0.16h-0.09v-0.47h0.19c0.11,0,0.16,0.05,0.17,0.13c0,0.01,0,0.02,0,0.03
	C42.66,98.99,42.63,99.03,42.58,99.05 M42.82,98.99c0-0.2-0.15-0.36-0.35-0.36c-0.19,0-0.35,0.16-0.35,0.36
	c0,0.2,0.15,0.36,0.35,0.36C42.67,99.35,42.82,99.19,42.82,98.99 M42.93,98.99c0,0.25-0.2,0.45-0.45,0.45
	c-0.25,0-0.45-0.2-0.45-0.45s0.2-0.45,0.45-0.45C42.72,98.54,42.93,98.74,42.93,98.99"/>
<polygon class="st2" points="76.17,97.4 76.17,86.76 74.48,86.76 74.48,85.05 79.75,85.05 79.75,86.76 78.06,86.76 78.06,97.4 "/>
<polygon class="st2" points="85.17,90.26 85.17,85.05 87.06,85.05 87.06,97.4 85.17,97.4 85.17,91.97 83.35,91.97 83.35,97.4 
	81.46,97.4 81.46,85.05 83.35,85.05 83.35,90.26 "/>
<polygon class="st2" points="93.35,85.05 93.35,86.76 91.04,86.76 91.04,90.26 93.26,90.26 93.26,91.97 91.04,91.97 91.04,95.69 
	93.39,95.69 93.39,97.4 89.15,97.4 89.15,85.05 "/>
<path class="st2" d="M104.06,95.21c0,1.53-0.76,2.29-2.29,2.29h-0.92c-1.54,0-2.29-0.76-2.29-2.29V85.05h1.89v10.07
	c0,0.49,0.23,0.72,0.72,0.72h0.3c0.48,0,0.71-0.23,0.71-0.72V85.05h1.89V95.21z"/>
<polygon class="st2" points="109.74,97.4 107.81,89.09 107.83,91.26 107.83,97.4 106.14,97.4 106.14,85.05 108.34,85.05 
	110.11,92.67 110.09,90.61 110.09,85.05 111.78,85.05 111.78,97.4 "/>
<rect x="113.9" y="85.05" class="st2" width="1.89" height="12.35"/>
<polygon class="st2" points="119.36,97.42 117.55,85.05 119.45,85.05 120.56,94.26 121.71,85.05 123.51,85.05 121.68,97.42 "/>
<polygon class="st2" points="129.43,85.05 129.43,86.76 127.12,86.76 127.12,90.26 129.35,90.26 129.35,91.97 127.12,91.97 
	127.12,95.69 129.47,95.69 129.47,97.4 125.24,97.4 125.24,85.05 "/>
<path class="st2" d="M134.25,86.73h-0.92v4.08h0.85c0.53,0,0.78-0.25,0.78-0.76v-2.61C134.95,86.96,134.73,86.73,134.25,86.73
	 M136.86,93.2v4.2h-1.89v-4.16c0-0.55-0.25-0.79-0.79-0.79h-0.85v4.96h-1.89V85.05h3.11c1.53,0,2.29,0.76,2.29,2.29v2.33
	c0,1.09-0.39,1.62-1.08,1.91C136.54,91.79,136.86,92.27,136.86,93.2"/>
<path class="st2" d="M144.27,93.2v2.01c0,1.53-0.76,2.29-2.29,2.29h-0.83c-1.54,0-2.28-0.76-2.28-2.28v-2.61h1.83v2.54
	c0,0.48,0.23,0.7,0.72,0.7h0.25c0.49,0,0.72-0.23,0.72-0.7v-1.69c0-0.51-0.18-0.74-0.53-1.01l-1.91-1.39
	c-0.85-0.6-1.09-1.18-1.09-2.13v-1.69c0-1.54,0.76-2.29,2.29-2.29h0.79c1.52,0,2.28,0.76,2.28,2.28v2.24h-1.85v-2.17
	c0-0.48-0.23-0.71-0.71-0.71h-0.23c-0.48,0-0.71,0.23-0.71,0.71v1.38c0,0.51,0.18,0.76,0.53,1.01l1.9,1.39
	C144,91.67,144.27,92.2,144.27,93.2"/>
<rect x="146.28" y="85.05" class="st2" width="1.89" height="12.35"/>
<polygon class="st2" points="151.58,97.4 151.58,86.76 149.89,86.76 149.89,85.05 155.17,85.05 155.17,86.76 153.47,86.76 
	153.47,97.4 "/>
<polygon class="st2" points="160.21,93.01 160.21,97.4 158.32,97.4 158.32,93.2 156.29,85.05 158.23,85.05 159.29,90.31 
	160.42,85.05 162.24,85.05 "/>
<path class="st2" d="M170,86.6h-0.39c-0.49,0-0.72,0.23-0.72,0.72v7.8c0,0.49,0.23,0.72,0.72,0.72H170c0.48,0,0.71-0.23,0.71-0.72
	v-7.8C170.7,86.83,170.47,86.6,170,86.6 M170.3,97.51h-1.01c-1.54,0-2.29-0.76-2.29-2.29v-7.97c0-1.54,0.76-2.29,2.29-2.29h1.01
	c1.53,0,2.29,0.76,2.29,2.29v7.97C172.59,96.75,171.83,97.51,170.3,97.51"/>
<polygon class="st2" points="178.76,85.05 178.76,86.76 176.54,86.76 176.54,90.33 178.67,90.33 178.67,92.04 176.54,92.04 
	176.54,97.4 174.65,97.4 174.65,85.05 "/>
<polygon class="st2" points="185.18,97.4 185.18,86.76 183.49,86.76 183.49,85.05 188.76,85.05 188.76,86.76 187.07,86.76 
	187.07,97.4 "/>
<polygon class="st2" points="194.67,85.05 194.67,86.76 192.36,86.76 192.36,90.26 194.58,90.26 194.58,91.97 192.36,91.97 
	192.36,95.69 194.7,95.69 194.7,97.4 190.47,97.4 190.47,85.05 "/>
<polygon class="st2" points="200.47,91.16 202.2,97.4 200.26,97.4 199.22,92.97 198.11,97.4 196.29,97.4 198.02,91.31 196.33,85.05 
	198.27,85.05 199.29,89.46 200.35,85.05 202.17,85.05 "/>
<path class="st2" d="M205.53,93.78h1.53l-0.78-6.25L205.53,93.78z M209.4,97.4h-1.87l-0.25-1.94h-1.96l-0.23,1.94h-1.75l1.76-12.37
	h2.51L209.4,97.4z"/>
<path class="st2" d="M216.4,93.2v2.01c0,1.53-0.76,2.29-2.29,2.29h-0.83c-1.54,0-2.28-0.76-2.28-2.28v-2.61h1.84v2.54
	c0,0.48,0.23,0.7,0.72,0.7h0.25c0.49,0,0.72-0.23,0.72-0.7v-1.69c0-0.51-0.18-0.74-0.53-1.01l-1.91-1.39
	c-0.85-0.6-1.09-1.18-1.09-2.13v-1.69c0-1.54,0.76-2.29,2.29-2.29h0.79c1.52,0,2.28,0.76,2.28,2.28v2.24h-1.85v-2.17
	c0-0.48-0.23-0.71-0.71-0.71h-0.23c-0.48,0-0.71,0.23-0.71,0.71v1.38c0,0.51,0.18,0.76,0.53,1.01l1.91,1.39
	C216.13,91.67,216.4,92.2,216.4,93.2"/>
<path class="st2" d="M223.43,93.78h1.53l-0.78-6.25L223.43,93.78z M227.3,97.4h-1.87l-0.25-1.94h-1.96l-0.23,1.94h-1.75l1.76-12.37
	h2.51L227.3,97.4z"/>
<polygon class="st2" points="229.64,97.4 229.64,86.76 227.95,86.76 227.95,85.05 233.22,85.05 233.22,86.76 231.53,86.76 
	231.53,97.4 "/>
<polygon class="st2" points="242.34,85.05 242.34,86.76 240.03,86.76 240.03,90.26 242.25,90.26 242.25,91.97 240.03,91.97 
	240.03,95.69 242.37,95.69 242.37,97.4 238.14,97.4 238.14,85.05 "/>
<polygon class="st2" points="246.24,85.05 246.24,95.69 248.32,95.69 248.32,97.4 244.35,97.4 244.35,85.05 "/>
<path class="st2" d="M256.02,86.71h-0.78v4.55h0.78c0.48,0,0.7-0.23,0.7-0.72v-3.1C256.73,86.94,256.5,86.71,256.02,86.71
	 M255.25,97.4h-1.89V85.05h2.96c1.53,0,2.29,0.76,2.29,2.29v3.28c0,1.54-0.76,2.29-2.29,2.29h-1.08V97.4z"/>
<path class="st2" d="M261.91,93.78h1.53l-0.78-6.25L261.91,93.78z M265.78,97.4h-1.87l-0.25-1.94h-1.96l-0.23,1.94h-1.75l1.76-12.37
	H264L265.78,97.4z"/>
<path class="st2" d="M272.78,93.2v2.01c0,1.53-0.76,2.29-2.29,2.29h-0.83c-1.54,0-2.28-0.76-2.28-2.28v-2.61h1.83v2.54
	c0,0.48,0.23,0.7,0.72,0.7h0.25c0.49,0,0.72-0.23,0.72-0.7v-1.69c0-0.51-0.18-0.74-0.53-1.01l-1.91-1.39
	c-0.85-0.6-1.09-1.18-1.09-2.13v-1.69c0-1.54,0.76-2.29,2.29-2.29h0.79c1.52,0,2.28,0.76,2.28,2.28v2.24h-1.85v-2.17
	c0-0.48-0.23-0.71-0.71-0.71h-0.23c-0.48,0-0.71,0.23-0.71,0.71v1.38c0,0.51,0.18,0.76,0.53,1.01l1.9,1.39
	C272.51,91.67,272.78,92.2,272.78,93.2"/>
<path class="st2" d="M277.73,86.6h-0.39c-0.49,0-0.72,0.23-0.72,0.72v7.8c0,0.49,0.23,0.72,0.72,0.72h0.39
	c0.48,0,0.71-0.23,0.71-0.72v-7.8C278.44,86.83,278.21,86.6,277.73,86.6 M278.03,97.51h-1.01c-1.54,0-2.29-0.76-2.29-2.29v-7.97
	c0-1.54,0.76-2.29,2.29-2.29h1.01c1.53,0,2.29,0.76,2.29,2.29v7.97C280.33,96.75,279.57,97.51,278.03,97.51"/>
</svg>
