<?xml version="1.0" encoding="utf-8"?>
<!-- Generator: Adobe Illustrator 27.4.1, SVG Export Plug-In . SVG Version: 6.00 Build 0)  -->
<svg version="1.1" id="Layer_1" xmlns="http://www.w3.org/2000/svg" xmlns:xlink="http://www.w3.org/1999/xlink" x="0px" y="0px"
	 viewBox="0 0 300 200" style="enable-background:new 0 0 300 200;" xml:space="preserve">
<style type="text/css">
	.st0{fill:#B4B3B2;}
</style>
<path class="st0" d="M160.97,57.59l-10.2,0.22l-1,3.24l-6.15,0.14l-0.43,1.21c-17.46,0.54-33.86,9.35-39.2,13.5l34.84-1.34
	l-0.85,2.79l9.01-0.2l-14.33,65.32l12.43-3.97l11.97-61.56l6.82-0.15l0.85-3.11l44.39-1.2c-8.28-5.02-29.34-10.5-41.22-10.35
	l0.41-1.48l-7.97,0.17L160.97,57.59z"/>
<path class="st0" d="M100.92,83.56l-3.03,11.65l6.75-0.32l-5.82,23.02c-2.56,11.86,2.12,19.89,9.62,20.53
	c6.6,0.56,17.85-1.78,21.19-12.21c3.32-10.31,11.22-44.12,11.22-44.12L127.6,82.6l-8.02,34.62c-1.3,4.77-3.61,7.28-5.35,6.69
	c-1.73-0.58-1.96-2.78-0.67-8.22c1.29-5.44,7.87-32.9,7.87-32.9L100.92,83.56z"/>
<polygon class="st0" points="161.18,81.41 159.09,92.68 162.39,92.57 158.41,112.88 155.05,113.4 152.09,128.5 182.31,120.64 
	184.32,109.53 170,111.33 170.62,107.31 177.48,106.46 179.48,95.07 172.86,95.6 173.44,91.89 183.68,91.14 185.42,80.54 "/>
<path class="st0" d="M213.78,79.44l-24.22,0.9l-1.7,10.38l3.63-0.31l-4.89,29.23l9.41-2.44l2.25-12.1
	C213.4,100.9,213.84,81.49,213.78,79.44 M199.51,96.57l1.12-7.48l5.19-0.31C205.87,89.94,203.37,95.63,199.51,96.57"/>
<path class="st0" d="M155.29,133.73c0,1.08-0.88,1.95-1.95,1.95c-1.08,0-1.95-0.87-1.95-1.95c0-1.08,0.87-1.95,1.95-1.95
	C154.41,131.78,155.29,132.65,155.29,133.73 M154.84,133.73c0-0.86-0.67-1.56-1.5-1.56c-0.82,0-1.5,0.69-1.5,1.56
	c0,0.86,0.67,1.56,1.5,1.56C154.17,135.29,154.84,134.59,154.84,133.73 M153.78,134l0.41,0.74h-0.42l-0.34-0.69H153v0.69h-0.39
	v-2.04h0.82c0.49,0,0.7,0.2,0.73,0.57c0.01,0.06,0.01,0.1,0,0.15C154.14,133.7,154.02,133.91,153.78,134 M153.43,133.7
	c0.22,0,0.34-0.11,0.36-0.29v-0.14c-0.02-0.16-0.13-0.25-0.36-0.25h-0.44v0.68H153.43z"/>
</svg>
