<?xml version="1.0" encoding="utf-8"?>
<!-- Generator: Adobe Illustrator 27.4.1, SVG Export Plug-In . SVG Version: 6.00 Build 0)  -->
<svg version="1.1" id="Layer_1" xmlns="http://www.w3.org/2000/svg" xmlns:xlink="http://www.w3.org/1999/xlink" x="0px" y="0px"
	 viewBox="0 0 300 200" style="enable-background:new 0 0 300 200;" xml:space="preserve">
<style type="text/css">
	.st0{fill:#010101;}
	.st1{fill:#FFFFFF;}
</style>
<rect x="73.08" y="30.65" class="st0" width="165.16" height="138.67"/>
<path class="st1" d="M160.14,63.65l-8.72,0.18l-0.85,2.77l-5.25,0.12l-0.37,1.03c-14.91,0.47-28.92,7.98-33.48,11.53l29.76-1.14
	l-0.73,2.39l7.69-0.17l-12.24,55.78l10.61-3.39l10.22-52.57l5.82-0.13l0.73-2.66l37.91-1.02c-7.07-4.28-25.05-8.96-35.2-8.84
	l0.35-1.26l-6.81,0.15L160.14,63.65z"/>
<path class="st1" d="M108.85,85.83l-2.59,9.95l5.77-0.28l-4.97,19.66c-2.19,10.13,1.81,16.99,8.21,17.53
	c5.63,0.48,15.24-1.52,18.1-10.42c2.84-8.81,9.58-37.68,9.58-37.68l-11.31,0.42l-6.85,29.57c-1.11,4.07-3.09,6.21-4.57,5.72
	c-1.48-0.5-1.67-2.38-0.57-7.03c1.11-4.65,6.72-28.1,6.72-28.1L108.85,85.83z"/>
<polygon class="st1" points="160.31,83.99 158.53,93.62 161.35,93.52 157.95,110.86 155.08,111.31 152.56,124.21 178.36,117.49 
	180.08,108.01 167.85,109.54 168.37,106.11 174.24,105.39 175.94,95.66 170.29,96.11 170.78,92.94 179.53,92.3 181.02,83.25 "/>
<path class="st1" d="M205.24,82.31l-20.68,0.77l-1.45,8.87l3.1-0.27l-4.18,24.96l8.04-2.08l1.92-10.33
	C204.92,100.64,205.29,84.06,205.24,82.31 M193.05,96.94l0.96-6.39l4.43-0.27C198.48,91.28,196.35,96.14,193.05,96.94"/>
<path class="st1" d="M155.28,128.68c0,0.92-0.75,1.66-1.67,1.66c-0.92,0-1.66-0.75-1.66-1.66c0-0.92,0.74-1.66,1.66-1.66
	C154.54,127.02,155.28,127.76,155.28,128.68 M154.9,128.68c0-0.74-0.57-1.33-1.28-1.33c-0.7,0-1.28,0.59-1.28,1.33
	c0,0.73,0.57,1.33,1.28,1.33C154.32,130.01,154.9,129.41,154.9,128.68 M153.99,128.9l0.35,0.64h-0.36l-0.29-0.59h-0.36v0.59H153
	v-1.74h0.7c0.42,0,0.6,0.17,0.62,0.49c0,0.05,0,0.08,0,0.13C154.31,128.65,154.2,128.82,153.99,128.9 M153.7,128.65
	c0.19,0,0.29-0.09,0.3-0.24v-0.12c-0.01-0.14-0.11-0.22-0.3-0.22h-0.38v0.58H153.7z"/>
</svg>
