<?xml version="1.0" encoding="utf-8"?>
<!-- Generator: Adobe Illustrator 27.4.1, SVG Export Plug-In . SVG Version: 6.00 Build 0)  -->
<svg version="1.1" id="Layer_1" xmlns="http://www.w3.org/2000/svg" xmlns:xlink="http://www.w3.org/1999/xlink" x="0px" y="0px"
	 viewBox="0 0 300 200" style="enable-background:new 0 0 300 200;" xml:space="preserve">
<style type="text/css">
	.st0{fill:#010101;}
	.st1{fill:#FFFFFF;}
</style>
<rect x="91.86" y="44.62" class="st0" width="123.85" height="112.82"/>
<path class="st1" d="M156.97,67.27l-8.12,0.17l-0.79,2.58l-4.89,0.11l-0.34,0.96c-13.89,0.43-26.93,7.43-31.18,10.74l27.71-1.06
	l-0.68,2.22l7.16-0.16l-11.4,51.95l9.89-3.16l9.52-48.97l5.42-0.12l0.68-2.47l35.31-0.96c-6.58-3.99-23.34-8.35-32.78-8.23
	l0.32-1.18l-6.34,0.14L156.97,67.27z"/>
<path class="st1" d="M109.21,87.93l-2.41,9.27l5.37-0.25l-4.63,18.31c-2.04,9.44,1.69,15.82,7.65,16.33
	c5.25,0.44,14.2-1.42,16.86-9.71c2.64-8.2,8.92-35.1,8.92-35.1l-10.53,0.39l-6.38,27.54c-1.03,3.79-2.87,5.79-4.25,5.32
	c-1.38-0.46-1.56-2.21-0.53-6.54c1.03-4.33,6.26-26.17,6.26-26.17L109.21,87.93z"/>
<polygon class="st1" points="157.14,86.22 155.48,95.18 158.1,95.09 154.94,111.25 152.26,111.66 149.91,123.67 173.95,117.42 
	175.55,108.58 164.16,110.02 164.65,106.82 170.11,106.14 171.7,97.08 166.43,97.5 166.89,94.55 175.04,93.95 176.42,85.53 "/>
<path class="st1" d="M198.98,84.65l-19.26,0.72l-1.35,8.26l2.89-0.25l-3.89,23.25l7.48-1.94l1.79-9.62
	C198.68,101.72,199.03,86.28,198.98,84.65 M187.63,98.28l0.89-5.95l4.13-0.25C192.69,93.01,190.7,97.53,187.63,98.28"/>
<path class="st1" d="M152.46,127.84c0,0.86-0.7,1.55-1.55,1.55c-0.86,0-1.55-0.69-1.55-1.55c0-0.86,0.69-1.55,1.55-1.55
	C151.76,126.29,152.46,126.98,152.46,127.84 M152.1,127.84c0-0.69-0.53-1.24-1.19-1.24c-0.66,0-1.19,0.55-1.19,1.24
	c0,0.68,0.53,1.24,1.19,1.24C151.56,129.08,152.1,128.52,152.1,127.84 M151.25,128.05l0.32,0.59h-0.33l-0.27-0.55h-0.34v0.55h-0.31
	v-1.62h0.65c0.39,0,0.56,0.16,0.58,0.46c0,0.05,0,0.08,0,0.12C151.55,127.81,151.45,127.97,151.25,128.05 M150.98,127.81
	c0.17,0,0.27-0.09,0.28-0.23v-0.11c-0.01-0.13-0.11-0.2-0.28-0.2h-0.35v0.54H150.98z"/>
</svg>
