<?xml version="1.0" encoding="utf-8"?>
<!-- Generator: Adobe Illustrator 27.4.1, SVG Export Plug-In . SVG Version: 6.00 Build 0)  -->
<svg version="1.1" id="Layer_1" xmlns="http://www.w3.org/2000/svg" xmlns:xlink="http://www.w3.org/1999/xlink" x="0px" y="0px"
	 viewBox="0 0 300 200" style="enable-background:new 0 0 300 200;" xml:space="preserve">
<style type="text/css">
	.st0{fill:#F58220;}
</style>
<path class="st0" d="M155.65,62.97l-8.9,0.19l-0.87,2.83l-5.36,0.12l-0.38,1.05c-15.22,0.47-29.53,8.15-34.19,11.77l30.39-1.17
	l-0.75,2.44l7.85-0.17L130.96,137l10.84-3.46l10.44-53.69l5.95-0.13l0.74-2.71l38.71-1.05c-7.22-4.37-25.59-9.15-35.94-9.02
	l0.35-1.29l-6.95,0.15L155.65,62.97z"/>
<path class="st0" d="M103.28,85.63l-2.65,10.16l5.89-0.28l-5.08,20.07c-2.23,10.35,1.85,17.35,8.39,17.9
	c5.75,0.49,15.56-1.55,18.48-10.65c2.9-8.99,9.78-38.48,9.78-38.48l-11.55,0.43l-7,30.19c-1.13,4.16-3.15,6.35-4.66,5.83
	c-1.51-0.51-1.71-2.42-0.58-7.17c1.13-4.75,6.86-28.69,6.86-28.69L103.28,85.63z"/>
<polygon class="st0" points="155.83,83.75 154.01,93.58 156.89,93.48 153.42,111.19 150.48,111.65 147.91,124.82 174.26,117.96 
	176.01,108.27 163.53,109.84 164.06,106.33 170.05,105.6 171.79,95.66 166.02,96.12 166.52,92.89 175.45,92.23 176.97,82.99 "/>
<path class="st0" d="M201.71,82.03l-21.12,0.79l-1.49,9.05l3.17-0.27l-4.26,25.49l8.2-2.13l1.96-10.55
	C201.37,100.75,201.76,83.82,201.71,82.03 M189.26,96.97l0.98-6.52l4.53-0.27C194.8,91.19,192.62,96.15,189.26,96.97"/>
<path class="st0" d="M150.69,129.38c0,0.94-0.76,1.7-1.7,1.7c-0.94,0-1.7-0.76-1.7-1.7c0-0.94,0.76-1.7,1.7-1.7
	C149.93,127.68,150.69,128.44,150.69,129.38 M150.3,129.38c0-0.75-0.59-1.36-1.31-1.36c-0.72,0-1.3,0.6-1.3,1.36
	c0,0.75,0.58,1.36,1.3,1.36C149.72,130.74,150.3,130.13,150.3,129.38 M149.38,129.61l0.35,0.65h-0.36l-0.3-0.61h-0.37v0.6h-0.34
	v-1.78h0.72c0.42,0,0.61,0.18,0.63,0.5c0.01,0.05,0.01,0.09,0,0.13C149.7,129.35,149.59,129.53,149.38,129.61 M149.08,129.35
	c0.19,0,0.29-0.09,0.31-0.25v-0.12c-0.02-0.14-0.12-0.22-0.31-0.22h-0.39v0.59H149.08z"/>
</svg>
