<?xml version="1.0" encoding="utf-8"?>
<!-- Generator: Adobe Illustrator 27.4.1, SVG Export Plug-In . SVG Version: 6.00 Build 0)  -->
<svg version="1.1" id="Layer_1" xmlns="http://www.w3.org/2000/svg" xmlns:xlink="http://www.w3.org/1999/xlink" x="0px" y="0px"
	 viewBox="0 0 300 200" style="enable-background:new 0 0 300 200;" xml:space="preserve">
<style type="text/css">
	.st0{fill:#F58220;}
	.st1{fill:#131B47;}
</style>
<rect x="67.9" y="33.64" class="st0" width="161.6" height="135.68"/>
<path class="st1" d="M153.08,65.93l-8.53,0.18l-0.83,2.71l-5.14,0.11l-0.36,1.01c-14.59,0.46-28.29,7.81-32.76,11.28l29.11-1.12
	l-0.72,2.33l7.52-0.17l-11.97,54.58l10.38-3.32l10-51.44l5.7-0.13l0.71-2.6l37.09-1c-6.92-4.19-24.51-8.77-34.44-8.65l0.34-1.23
	l-6.66,0.14L153.08,65.93z"/>
<path class="st1" d="M102.9,87.63l-2.54,9.74l5.64-0.27l-4.87,19.23c-2.14,9.91,1.77,16.62,8.04,17.15
	c5.51,0.47,14.91-1.49,17.71-10.2c2.77-8.62,9.37-36.87,9.37-36.87l-11.06,0.41l-6.7,28.93c-1.09,3.99-3.02,6.08-4.47,5.59
	c-1.45-0.49-1.64-2.32-0.56-6.87c1.08-4.55,6.58-27.49,6.58-27.49L102.9,87.63z"/>
<polygon class="st1" points="153.25,85.84 151.51,95.25 154.26,95.16 150.94,112.13 148.13,112.56 145.66,125.18 170.91,118.61 
	172.59,109.33 160.63,110.83 161.14,107.47 166.87,106.77 168.55,97.25 163.01,97.69 163.5,94.59 172.05,93.96 173.51,85.11 "/>
<path class="st1" d="M197.21,84.19l-20.24,0.76l-1.42,8.67l3.03-0.26l-4.09,24.42l7.86-2.04l1.88-10.11
	C196.89,102.12,197.26,85.9,197.21,84.19 M185.28,98.5l0.94-6.25l4.34-0.26C190.6,92.97,188.51,97.72,185.28,98.5"/>
<path class="st1" d="M148.33,129.56c0,0.9-0.73,1.63-1.63,1.63c-0.9,0-1.63-0.73-1.63-1.63c0-0.9,0.73-1.63,1.63-1.63
	C147.6,127.93,148.33,128.65,148.33,129.56 M147.95,129.56c0-0.73-0.56-1.3-1.26-1.3c-0.69,0-1.25,0.58-1.25,1.3
	c0,0.72,0.56,1.3,1.25,1.3C147.39,130.86,147.95,130.27,147.95,129.56 M147.07,129.77l0.34,0.62h-0.35l-0.29-0.58h-0.35v0.57h-0.33
	v-1.7h0.68c0.41,0,0.59,0.17,0.61,0.48c0,0.05,0,0.08,0,0.12C147.38,129.53,147.27,129.7,147.07,129.77 M146.78,129.53
	c0.18,0,0.28-0.09,0.3-0.24v-0.12c-0.01-0.13-0.11-0.21-0.3-0.21h-0.37v0.57H146.78z"/>
</svg>
