<?xml version="1.0" encoding="utf-8"?>
<!-- Generator: Adobe Illustrator 27.4.1, SVG Export Plug-In . SVG Version: 6.00 Build 0)  -->
<svg version="1.1" id="Layer_1" xmlns="http://www.w3.org/2000/svg" xmlns:xlink="http://www.w3.org/1999/xlink" x="0px" y="0px"
	 viewBox="0 0 300 200" style="enable-background:new 0 0 300 200;" xml:space="preserve">
<style type="text/css">
	.st0{fill:#B4B3B2;}
	.st1{fill:#FFFFFF;}
</style>
<rect x="82.16" y="29.65" class="st0" width="152.09" height="127.7"/>
<path class="st1" d="M162.33,60.04l-8.03,0.17l-0.78,2.55l-4.83,0.11l-0.34,0.95c-13.73,0.43-26.63,7.35-30.83,10.62l27.4-1.05
	l-0.67,2.2l7.08-0.16l-11.27,51.37l9.77-3.13l9.42-48.41l5.36-0.12l0.67-2.45l34.91-0.94c-6.51-3.94-23.07-8.25-32.41-8.14
	l0.32-1.16l-6.27,0.14L162.33,60.04z"/>
<path class="st1" d="M115.1,80.47l-2.39,9.17l5.31-0.25l-4.58,18.1c-2.02,9.33,1.67,15.65,7.56,16.14c5.19,0.44,14.04-1.4,16.67-9.6
	c2.61-8.11,8.82-34.7,8.82-34.7l-10.41,0.39l-6.31,27.23c-1.02,3.75-2.84,5.72-4.21,5.26c-1.36-0.46-1.54-2.19-0.52-6.47
	c1.02-4.28,6.19-25.87,6.19-25.87L115.1,80.47z"/>
<polygon class="st1" points="162.49,78.78 160.85,87.64 163.44,87.55 160.32,103.52 157.67,103.93 155.35,115.81 179.11,109.62 
	180.69,100.89 169.43,102.3 169.91,99.14 175.31,98.48 176.88,89.52 171.68,89.93 172.13,87.02 180.19,86.42 181.56,78.09 "/>
<path class="st1" d="M203.86,77.23l-19.05,0.71l-1.34,8.16l2.85-0.25l-3.84,22.98l7.4-1.92l1.77-9.51
	C203.56,94.1,203.91,78.84,203.86,77.23 M192.64,90.7l0.88-5.88l4.08-0.25C197.64,85.49,195.67,89.96,192.64,90.7"/>
<path class="st1" d="M157.86,119.92c0,0.85-0.69,1.53-1.54,1.53c-0.85,0-1.53-0.69-1.53-1.53c0-0.85,0.68-1.53,1.53-1.53
	C157.17,118.39,157.86,119.08,157.86,119.92 M157.5,119.92c0-0.68-0.53-1.23-1.18-1.23c-0.65,0-1.17,0.54-1.17,1.23
	c0,0.68,0.53,1.22,1.17,1.22C156.98,121.15,157.5,120.6,157.5,119.92 M156.67,120.13l0.32,0.59h-0.33l-0.27-0.55h-0.33v0.54h-0.31
	v-1.6h0.64c0.38,0,0.56,0.16,0.57,0.45c0,0.04,0,0.08,0,0.12C156.96,119.9,156.86,120.06,156.67,120.13 M156.4,119.9
	c0.17,0,0.27-0.09,0.28-0.22v-0.11c-0.01-0.13-0.1-0.2-0.28-0.2h-0.35v0.53H156.4z"/>
</svg>
