<?xml version="1.0" encoding="utf-8"?>
<!-- Generator: Adobe Illustrator 27.4.1, SVG Export Plug-In . SVG Version: 6.00 Build 0)  -->
<svg version="1.1" id="Layer_1" xmlns="http://www.w3.org/2000/svg" xmlns:xlink="http://www.w3.org/1999/xlink" x="0px" y="0px"
	 viewBox="0 0 300 200" style="enable-background:new 0 0 300 200;" xml:space="preserve">
<style type="text/css">
	.st0{fill:#131B47;}
</style>
<path class="st0" d="M158.49,55.59l-9.96,0.21l-0.97,3.17l-6,0.14l-0.42,1.18c-17.05,0.53-33.07,9.13-38.28,13.18l34.02-1.31
	l-0.83,2.73l8.79-0.19l-13.99,63.78l12.14-3.88l11.69-60.12l6.66-0.15l0.83-3.04l43.35-1.17c-8.08-4.9-28.65-10.25-40.25-10.11
	l0.4-1.44l-7.78,0.17L158.49,55.59z"/>
<path class="st0" d="M99.85,80.96l-2.96,11.38l6.59-0.31l-5.69,22.48c-2.5,11.58,2.07,19.42,9.39,20.04
	c6.44,0.54,17.43-1.74,20.69-11.92c3.24-10.07,10.96-43.08,10.96-43.08l-12.93,0.48l-7.83,33.81c-1.27,4.66-3.53,7.1-5.22,6.53
	c-1.69-0.57-1.91-2.71-0.65-8.03c1.26-5.31,7.69-32.13,7.69-32.13L99.85,80.96z"/>
<polygon class="st0" points="158.69,78.86 156.65,89.86 159.88,89.75 155.99,109.58 152.7,110.09 149.82,124.84 179.33,117.16 
	181.29,106.31 167.31,108.07 167.91,104.14 174.61,103.32 176.57,92.2 170.1,92.71 170.66,89.09 180.66,88.35 182.37,78.01 "/>
<path class="st0" d="M210.06,76.93l-23.65,0.88l-1.66,10.14l3.54-0.31l-4.77,28.54l9.19-2.38l2.19-11.81
	C209.69,97.88,210.12,78.93,210.06,76.93 M196.12,93.66l1.09-7.3l5.07-0.31C202.33,87.19,199.89,92.74,196.12,93.66"/>
<path class="st0" d="M152.94,129.95c0,1.05-0.86,1.9-1.91,1.9c-1.05,0-1.9-0.85-1.9-1.9s0.85-1.9,1.9-1.9
	C152.09,128.05,152.94,128.89,152.94,129.95 M152.5,129.95c0-0.84-0.65-1.52-1.47-1.52c-0.81,0-1.46,0.68-1.46,1.52
	c0,0.84,0.66,1.52,1.46,1.52C151.85,131.47,152.5,130.79,152.5,129.95 M151.47,130.2l0.4,0.73h-0.41l-0.33-0.68h-0.41v0.67h-0.38
	v-1.99h0.8c0.48,0,0.69,0.2,0.71,0.56c0.01,0.06,0.01,0.09,0,0.15C151.82,129.92,151.71,130.12,151.47,130.2 M151.13,129.91
	c0.21,0,0.33-0.11,0.35-0.28v-0.13c-0.02-0.16-0.13-0.25-0.35-0.25h-0.43v0.66H151.13z"/>
</svg>
