<?xml version="1.0" encoding="utf-8"?>
<!-- Generator: Adobe Illustrator 27.4.1, SVG Export Plug-In . SVG Version: 6.00 Build 0)  -->
<svg version="1.1" id="Layer_1" xmlns="http://www.w3.org/2000/svg" xmlns:xlink="http://www.w3.org/1999/xlink" x="0px" y="0px"
	 viewBox="0 0 300 200" style="enable-background:new 0 0 300 200;" xml:space="preserve">
<style type="text/css">
	.st0{fill:#FFFFFF;}
	.st1{fill:#131B47;}
</style>
<rect x="98.09" y="50.85" class="st0" width="125.43" height="105.31"/>
<path class="st1" d="M164.2,75.91l-6.62,0.14l-0.65,2.11l-3.99,0.09l-0.28,0.78c-11.32,0.35-21.96,6.06-25.43,8.76l22.6-0.87
	l-0.56,1.81l5.84-0.13l-9.29,42.36l8.06-2.58l7.76-39.93l4.42-0.1l0.55-2.02l28.79-0.78c-5.37-3.25-19.03-6.81-26.73-6.71l0.26-0.96
	l-5.17,0.11L164.2,75.91z"/>
<path class="st1" d="M125.25,92.76l-1.97,7.56l4.38-0.21l-3.78,14.93c-1.66,7.7,1.37,12.9,6.24,13.31
	c4.28,0.36,11.57-1.15,13.74-7.92c2.15-6.69,7.28-28.62,7.28-28.62l-8.59,0.32l-5.2,22.45c-0.85,3.09-2.34,4.72-3.47,4.34
	c-1.12-0.38-1.27-1.8-0.43-5.33c0.84-3.53,5.11-21.34,5.11-21.34L125.25,92.76z"/>
<polygon class="st1" points="164.33,91.37 162.98,98.68 165.12,98.6 162.54,111.77 160.36,112.11 158.44,121.9 178.04,116.81 
	179.34,109.6 170.06,110.77 170.45,108.16 174.9,107.61 176.2,100.23 171.91,100.57 172.28,98.16 178.92,97.67 180.06,90.8 "/>
<path class="st1" d="M198.45,90.09l-15.71,0.59l-1.1,6.73l2.35-0.2l-3.17,18.95l6.1-1.58l1.46-7.84
	C198.2,104,198.49,91.42,198.45,90.09 M189.19,101.2l0.73-4.85l3.37-0.2C193.32,96.9,191.7,100.59,189.19,101.2"/>
<path class="st1" d="M160.51,125.3c0,0.7-0.57,1.26-1.27,1.26c-0.7,0-1.26-0.57-1.26-1.26c0-0.7,0.56-1.26,1.26-1.26
	C159.94,124.04,160.51,124.6,160.51,125.3 M160.22,125.3c0-0.56-0.43-1.01-0.97-1.01c-0.53,0-0.97,0.45-0.97,1.01
	c0,0.56,0.43,1.01,0.97,1.01C159.79,126.31,160.22,125.86,160.22,125.3 M159.53,125.47l0.26,0.48h-0.27l-0.22-0.45h-0.27v0.44h-0.25
	v-1.32h0.53c0.32,0,0.46,0.13,0.47,0.37c0,0.04,0,0.06,0,0.1C159.77,125.28,159.69,125.41,159.53,125.47 M159.31,125.28
	c0.14,0,0.22-0.07,0.23-0.19V125c-0.01-0.1-0.08-0.16-0.23-0.16h-0.29v0.44H159.31z"/>
</svg>
