<?xml version="1.0" encoding="utf-8"?>
<!-- Generator: Adobe Illustrator 27.4.1, SVG Export Plug-In . SVG Version: 6.00 Build 0)  -->
<svg version="1.1" id="Layer_1" xmlns="http://www.w3.org/2000/svg" xmlns:xlink="http://www.w3.org/1999/xlink" x="0px" y="0px"
	 viewBox="0 0 300 200" style="enable-background:new 0 0 300 200;" xml:space="preserve">
<style type="text/css">
	.st0{fill:#4D4D4F;}
</style>
<polygon class="st0" points="30.01,104.8 30.01,92.5 28.05,92.5 28.05,90.53 34.15,90.53 34.15,92.5 32.19,92.5 32.19,104.8 "/>
<polygon class="st0" points="40.4,96.54 40.4,90.53 42.59,90.53 42.59,104.8 40.4,104.8 40.4,98.52 38.3,98.52 38.3,104.8 
	36.12,104.8 36.12,90.53 38.3,90.53 38.3,96.54 "/>
<polygon class="st0" points="49.87,90.53 49.87,92.5 47.2,92.5 47.2,96.54 49.76,96.54 49.76,98.52 47.2,98.52 47.2,102.82 
	49.91,102.82 49.91,104.8 45.01,104.8 45.01,90.53 "/>
<path class="st0" d="M62.24,102.27c0,1.77-0.88,2.65-2.65,2.65h-1.06c-1.77,0-2.65-0.88-2.65-2.65V90.53h2.18v11.64
	c0,0.57,0.27,0.84,0.84,0.84h0.35c0.55,0,0.82-0.26,0.82-0.84V90.53h2.18V102.27z"/>
<polygon class="st0" points="68.81,104.8 66.59,95.2 66.61,97.7 66.61,104.8 64.65,104.8 64.65,90.53 67.2,90.53 69.24,99.34 
	69.22,96.95 69.22,90.53 71.17,90.53 71.17,104.8 "/>
<rect x="73.62" y="90.53" class="st0" width="2.18" height="14.27"/>
<polygon class="st0" points="79.94,104.82 77.84,90.53 80.04,90.53 81.33,101.17 82.65,90.53 84.73,90.53 82.61,104.82 "/>
<polygon class="st0" points="91.58,90.53 91.58,92.5 88.91,92.5 88.91,96.54 91.48,96.54 91.48,98.52 88.91,98.52 88.91,102.82 
	91.62,102.82 91.62,104.8 86.73,104.8 86.73,90.53 "/>
<path class="st0" d="M97.15,92.46h-1.06v4.71h0.98c0.61,0,0.9-0.28,0.9-0.88v-3.02C97.96,92.73,97.7,92.46,97.15,92.46
	 M100.17,99.95v4.85h-2.18v-4.81c0-0.63-0.29-0.92-0.92-0.92h-0.98v5.73h-2.18V90.53h3.59c1.77,0,2.65,0.88,2.65,2.65v2.69
	c0,1.26-0.45,1.88-1.24,2.2C99.8,98.32,100.17,98.87,100.17,99.95"/>
<path class="st0" d="M108.73,99.95v2.32c0,1.77-0.88,2.65-2.65,2.65h-0.96c-1.77,0-2.63-0.88-2.63-2.63v-3.02h2.12v2.94
	c0,0.55,0.27,0.81,0.84,0.81h0.29c0.57,0,0.84-0.26,0.84-0.81v-1.96c0-0.59-0.2-0.86-0.61-1.16l-2.2-1.61
	c-0.98-0.69-1.26-1.37-1.26-2.47v-1.96c0-1.77,0.88-2.65,2.65-2.65h0.92c1.75,0,2.63,0.88,2.63,2.63v2.59h-2.14v-2.51
	c0-0.55-0.26-0.82-0.82-0.82h-0.27c-0.55,0-0.81,0.26-0.81,0.82v1.59c0,0.59,0.2,0.88,0.61,1.16l2.2,1.61
	C108.42,98.17,108.73,98.79,108.73,99.95"/>
<rect x="111.05" y="90.53" class="st0" width="2.18" height="14.27"/>
<polygon class="st0" points="117.19,104.8 117.19,92.5 115.23,92.5 115.23,90.53 121.33,90.53 121.33,92.5 119.37,92.5 
	119.37,104.8 "/>
<polygon class="st0" points="127.16,99.72 127.16,104.8 124.98,104.8 124.98,99.95 122.64,90.53 124.88,90.53 126.1,96.6 
	127.41,90.53 129.51,90.53 "/>
<path class="st0" d="M138.48,92.32h-0.45c-0.57,0-0.84,0.27-0.84,0.84v9.01c0,0.57,0.26,0.84,0.84,0.84h0.45
	c0.55,0,0.82-0.27,0.82-0.84v-9.01C139.29,92.59,139.03,92.32,138.48,92.32 M138.82,104.92h-1.16c-1.77,0-2.65-0.88-2.65-2.65v-9.22
	c0-1.77,0.88-2.65,2.65-2.65h1.16c1.77,0,2.65,0.88,2.65,2.65v9.22C141.48,104.05,140.6,104.92,138.82,104.92"/>
<polygon class="st0" points="148.61,90.53 148.61,92.5 146.04,92.5 146.04,96.62 148.51,96.62 148.51,98.6 146.04,98.6 
	146.04,104.8 143.86,104.8 143.86,90.53 "/>
<polygon class="st0" points="156.03,104.8 156.03,92.5 154.08,92.5 154.08,90.53 160.17,90.53 160.17,92.5 158.22,92.5 
	158.22,104.8 "/>
<polygon class="st0" points="167,90.53 167,92.5 164.33,92.5 164.33,96.54 166.9,96.54 166.9,98.52 164.33,98.52 164.33,102.82 
	167.04,102.82 167.04,104.8 162.15,104.8 162.15,90.53 "/>
<polygon class="st0" points="173.71,97.58 175.71,104.8 173.47,104.8 172.26,99.68 170.98,104.8 168.88,104.8 170.88,97.77 
	168.92,90.53 171.16,90.53 172.35,95.62 173.57,90.53 175.67,90.53 "/>
<path class="st0" d="M179.56,100.62h1.77l-0.9-7.22L179.56,100.62z M184.03,104.8h-2.16l-0.28-2.24h-2.26l-0.27,2.24h-2.02
	l2.04-14.29h2.9L184.03,104.8z"/>
<path class="st0" d="M192.12,99.95v2.32c0,1.77-0.88,2.65-2.65,2.65h-0.96c-1.77,0-2.63-0.88-2.63-2.63v-3.02h2.12v2.94
	c0,0.55,0.26,0.81,0.84,0.81h0.29c0.57,0,0.84-0.26,0.84-0.81v-1.96c0-0.59-0.2-0.86-0.61-1.16l-2.2-1.61
	c-0.98-0.69-1.26-1.37-1.26-2.47v-1.96c0-1.77,0.88-2.65,2.65-2.65h0.92c1.75,0,2.63,0.88,2.63,2.63v2.59h-2.14v-2.51
	c0-0.55-0.26-0.82-0.82-0.82h-0.27c-0.55,0-0.81,0.26-0.81,0.82v1.59c0,0.59,0.2,0.88,0.61,1.16l2.2,1.61
	C191.82,98.17,192.12,98.79,192.12,99.95"/>
<path class="st0" d="M200.26,100.62h1.77l-0.9-7.22L200.26,100.62z M204.72,104.8h-2.16l-0.28-2.24h-2.26l-0.27,2.24h-2.02
	l2.04-14.29h2.9L204.72,104.8z"/>
<polygon class="st0" points="207.44,104.8 207.44,92.5 205.48,92.5 205.48,90.53 211.58,90.53 211.58,92.5 209.62,92.5 
	209.62,104.8 "/>
<polygon class="st0" points="222.12,90.53 222.12,92.5 219.45,92.5 219.45,96.54 222.02,96.54 222.02,98.52 219.45,98.52 
	219.45,102.82 222.16,102.82 222.16,104.8 217.26,104.8 217.26,90.53 "/>
<polygon class="st0" points="226.62,90.53 226.62,102.82 229.03,102.82 229.03,104.8 224.44,104.8 224.44,90.53 "/>
<path class="st0" d="M237.94,92.44h-0.9v5.26h0.9c0.55,0,0.82-0.26,0.82-0.84v-3.59C238.76,92.71,238.49,92.44,237.94,92.44
	 M237.04,104.8h-2.18V90.53h3.43c1.77,0,2.65,0.88,2.65,2.65v3.79c0,1.77-0.88,2.65-2.65,2.65h-1.24V104.8z"/>
<path class="st0" d="M244.75,100.62h1.77l-0.9-7.22L244.75,100.62z M249.21,104.8h-2.16l-0.28-2.24h-2.26l-0.27,2.24h-2.02
	l2.04-14.29h2.9L249.21,104.8z"/>
<path class="st0" d="M257.31,99.95v2.32c0,1.77-0.88,2.65-2.65,2.65h-0.96c-1.77,0-2.63-0.88-2.63-2.63v-3.02h2.12v2.94
	c0,0.55,0.27,0.81,0.84,0.81h0.29c0.57,0,0.84-0.26,0.84-0.81v-1.96c0-0.59-0.2-0.86-0.61-1.16l-2.2-1.61
	c-0.98-0.69-1.26-1.37-1.26-2.47v-1.96c0-1.77,0.88-2.65,2.65-2.65h0.92c1.75,0,2.63,0.88,2.63,2.63v2.59h-2.14v-2.51
	c0-0.55-0.27-0.82-0.82-0.82h-0.27c-0.55,0-0.81,0.26-0.81,0.82v1.59c0,0.59,0.2,0.88,0.61,1.16l2.2,1.61
	C257,98.17,257.31,98.79,257.31,99.95"/>
<path class="st0" d="M263.04,92.32h-0.45c-0.57,0-0.84,0.27-0.84,0.84v9.01c0,0.57,0.26,0.84,0.84,0.84h0.45
	c0.55,0,0.82-0.27,0.82-0.84v-9.01C263.85,92.59,263.59,92.32,263.04,92.32 M263.39,104.92h-1.16c-1.77,0-2.65-0.88-2.65-2.65v-9.22
	c0-1.77,0.88-2.65,2.65-2.65h1.16c1.77,0,2.65,0.88,2.65,2.65v9.22C266.04,104.05,265.16,104.92,263.39,104.92"/>
</svg>
