<?xml version="1.0" encoding="utf-8"?>
<!-- Generator: Adobe Illustrator 27.4.1, SVG Export Plug-In . SVG Version: 6.00 Build 0)  -->
<svg version="1.1" id="Layer_1" xmlns="http://www.w3.org/2000/svg" xmlns:xlink="http://www.w3.org/1999/xlink" x="0px" y="0px"
	 viewBox="0 0 300 200" style="enable-background:new 0 0 300 200;" xml:space="preserve">
<style type="text/css">
	.st0{fill:#4D4D4F;}
</style>
<path class="st0" d="M119.34,119.81c0,9.06-4.48,13.53-13.53,13.53h-5.41c-9.06,0-13.53-4.48-13.53-13.53V59.85H98v59.43
	c0,2.92,1.35,4.27,4.27,4.27h1.77c2.81,0,4.16-1.35,4.16-4.27V59.85h11.14V119.81z"/>
<polygon class="st0" points="139.32,132.71 139.32,69.95 129.33,69.95 129.33,59.85 160.45,59.85 160.45,69.95 150.46,69.95 
	150.46,132.71 "/>
<polygon class="st0" points="195.32,59.85 195.32,69.95 181.68,69.95 181.68,90.56 194.8,90.56 194.8,100.65 181.68,100.65 
	181.68,122.62 195.53,122.62 195.53,132.71 170.54,132.71 170.54,59.85 "/>
<path class="st0" d="M222.9,69.64h-4.58v26.86h4.58c2.81,0,4.16-1.35,4.16-4.27V73.9C227.06,70.99,225.71,69.64,222.9,69.64
	 M218.32,132.71h-11.14V59.85h17.48c9.06,0,13.53,4.48,13.53,13.53v19.36c0,9.06-4.48,13.53-13.53,13.53h-6.35V132.71z"/>
</svg>
