<?xml version="1.0" encoding="utf-8"?>
<!-- Generator: Adobe Illustrator 27.4.1, SVG Export Plug-In . SVG Version: 6.00 Build 0)  -->
<svg version="1.1" id="Layer_1" xmlns="http://www.w3.org/2000/svg" xmlns:xlink="http://www.w3.org/1999/xlink" x="0px" y="0px"
	 viewBox="0 0 300 200" style="enable-background:new 0 0 300 200;" xml:space="preserve">
<style type="text/css">
	.st0{fill:#131B47;}
</style>
<path class="st0" d="M86.27,63.03l46.48-1.78l-1.14,3.73l12.01-0.26l-19.11,87.13l16.58-5.3l15.97-82.12l9.09-0.2l1.14-4.15
	l59.22-1.6c-11.04-6.69-39.13-14-54.98-13.81l0.54-1.97l-10.63,0.23l0.85-4.31l-13.61,0.29l-1.33,4.33l-8.2,0.18l-0.57,1.61
	C115.27,45.75,93.39,57.5,86.27,63.03"/>
<path class="st0" d="M154.7,140.19c0,1.44-1.17,2.6-2.61,2.6c-1.44,0-2.6-1.16-2.6-2.6c0-1.44,1.16-2.6,2.6-2.6
	C153.53,137.6,154.7,138.76,154.7,140.19 M154.1,140.19c0-1.15-0.89-2.08-2-2.08c-1.1,0-2,0.92-2,2.08c0,1.15,0.9,2.08,2,2.08
	C153.2,142.27,154.1,141.34,154.1,140.19 M152.68,140.55l0.54,0.99h-0.56l-0.45-0.92h-0.56v0.92h-0.52v-2.72h1.09
	c0.65,0,0.94,0.27,0.97,0.76c0.01,0.08,0.01,0.13,0,0.2C153.17,140.16,153.01,140.43,152.68,140.55 M152.23,140.15
	c0.29,0,0.45-0.15,0.47-0.38v-0.18c-0.02-0.22-0.18-0.34-0.47-0.34h-0.59v0.9H152.23z"/>
</svg>
