<?xml version="1.0" encoding="utf-8"?>
<!-- Generator: Adobe Illustrator 27.4.1, SVG Export Plug-In . SVG Version: 6.00 Build 0)  -->
<svg version="1.1" id="Layer_1" xmlns="http://www.w3.org/2000/svg" xmlns:xlink="http://www.w3.org/1999/xlink" x="0px" y="0px"
	 viewBox="0 0 300 200" style="enable-background:new 0 0 300 200;" xml:space="preserve">
<style type="text/css">
	.st0{fill:#131B47;}
	.st1{fill:#B4B3B2;}
	.st2{fill:#F58220;}
</style>
<path class="st0" d="M147.24,143.21c0,1.42-1.17,2.58-2.6,2.58c-1.44,0-2.6-1.15-2.6-2.58c0-1.43,1.16-2.58,2.6-2.58
	C146.07,140.64,147.24,141.79,147.24,143.21 M146.64,143.21c0-1.14-0.89-2.06-2-2.06c-1.1,0-1.99,0.92-1.99,2.06
	c0,1.14,0.89,2.06,1.99,2.06C145.75,145.28,146.64,144.35,146.64,143.21 M145.23,143.56l0.54,0.99h-0.56l-0.46-0.92h-0.56v0.91
	h-0.52v-2.7h1.09c0.65,0,0.94,0.27,0.97,0.76c0.01,0.08,0.01,0.13,0,0.2C145.71,143.18,145.55,143.44,145.23,143.56 M144.77,143.17
	c0.29,0,0.45-0.14,0.47-0.38v-0.18c-0.02-0.21-0.18-0.33-0.47-0.33h-0.59v0.89H144.77z"/>
<path class="st1" d="M166.33,51.51l0.42-1.5l-10.01,0.03l0.83-4.21l-15.47,0.33l-1.24,3.99l-7.54-0.04l-0.63,1.75
	c-19.61,0.82-39.17,9.92-48.74,16.95l-3.32,2.64l45.72-1.74l-1.21,3.91l11.46-0.41l-17.93,81.14l18.59-5.9l14.85-75.79l8.45-0.3
	l1.06-3.85l58.5-2.03C200.91,56.08,182.5,51.8,166.33,51.51"/>
<path class="st0" d="M150.79,51.83L145.22,52l-1.24,4.02L135.67,56l-0.61,1.7c-21.14,0.87-36.2,4.88-49.96,12.21l43.77-2.28
	l3.92-4.37L132,67.24l-4.35,4.43l11.24-0.44l5.14-4.8l-17.3,80.28l-5.61,4.94l14.59-4.63l14.91-76.01l8.48-0.16l1.17-4.21
	l55.65-0.97c-11.12-4.84-28.07-8.83-50.37-8.57l0.38-1.38l-16.84,0.26l5.24-3.69l0.57-3L150.79,51.83z"/>
<polygon class="st2" points="132.79,63.27 128.86,67.64 127.65,71.67 132,67.24 "/>
<polygon class="st2" points="144.03,66.43 138.89,71.23 138.89,71.23 121.12,151.65 126.73,146.71 "/>
<path class="st2" d="M135.67,56l8.31,0.01l1.24-4.02l5.57-0.17l4.1-2.54l0.23-1.33l-11.42,0.35l-1.25,4.02l-8.31-0.01L133.54,54
	c-9.72,0.42-31.48,4.16-48.44,15.91c13.76-7.33,28.82-11.34,49.96-12.21L135.67,56z"/>
<path class="st2" d="M154.33,52.29h9.87l-0.32,1.34c23.08-0.43,45.16,7.96,52.04,12.04c-14.28-6.01-30.18-8.68-50.37-8.57l0.38-1.38
	l-16.84,0.27L154.33,52.29z"/>
</svg>
