<?xml version="1.0" encoding="utf-8"?>
<!-- Generator: Adobe Illustrator 27.4.1, SVG Export Plug-In . SVG Version: 6.00 Build 0)  -->
<svg version="1.1" id="Layer_1" xmlns="http://www.w3.org/2000/svg" xmlns:xlink="http://www.w3.org/1999/xlink" x="0px" y="0px"
	 viewBox="0 0 300 200" style="enable-background:new 0 0 300 200;" xml:space="preserve">
<style type="text/css">
	.st0{fill:#FFFFFF;}
</style>
<path class="st0" d="M162,31.92l-14.14,0.3l-1.38,4.49l-8.52,0.19l-0.6,1.67c-24.19,0.75-46.93,12.95-54.33,18.71l48.29-1.85
	l-1.18,3.87l12.48-0.27l-19.85,90.52l17.22-5.51l16.59-85.32l9.45-0.21l1.18-4.31l61.52-1.66C217.25,45.59,188.07,38,171.6,38.2
	l0.56-2.05l-11.05,0.24L162,31.92z"/>
<path class="st0" d="M154.13,137.45c0,1.49-1.21,2.7-2.71,2.7c-1.5,0-2.7-1.21-2.7-2.7s1.2-2.7,2.7-2.7
	C152.91,134.75,154.13,135.95,154.13,137.45 M153.5,137.45c0-1.2-0.93-2.16-2.08-2.16c-1.14,0-2.07,0.96-2.07,2.16
	c0,1.19,0.93,2.16,2.07,2.16C152.57,139.61,153.5,138.64,153.5,137.45 M152.03,137.81l0.56,1.03h-0.58l-0.47-0.96h-0.58v0.95h-0.54
	v-2.82h1.14c0.68,0,0.98,0.28,1.01,0.79c0.01,0.08,0.01,0.13,0,0.21C152.54,137.41,152.37,137.69,152.03,137.81 M151.56,137.4
	c0.3,0,0.47-0.15,0.49-0.4v-0.19c-0.03-0.22-0.18-0.35-0.49-0.35h-0.61v0.94H151.56z"/>
</svg>
