<?xml version="1.0" encoding="utf-8"?>
<!-- Generator: Adobe Illustrator 27.4.1, SVG Export Plug-In . SVG Version: 6.00 Build 0)  -->
<svg version="1.1" id="Layer_1" xmlns="http://www.w3.org/2000/svg" xmlns:xlink="http://www.w3.org/1999/xlink" x="0px" y="0px"
	 viewBox="0 0 300 200" style="enable-background:new 0 0 300 200;" xml:space="preserve">
<style type="text/css">
	.st0{fill:#F28221;}
	.st1{fill:#FFFFFF;}
	.st2{fill:#4D4D4F;}
</style>
<rect x="124.31" y="39.87" class="st0" width="57.5" height="48.28"/>
<path class="st1" d="M154.62,51.35l-3.03,0.06l-0.3,0.97l-1.83,0.04l-0.13,0.36c-5.19,0.16-10.07,2.78-11.65,4.01l10.36-0.4
	l-0.25,0.83l2.68-0.06l-4.26,19.42l3.7-1.18l3.56-18.3l2.03-0.05l0.25-0.92l13.2-0.36c-2.46-1.49-8.72-3.12-12.25-3.08l0.12-0.44
	l-2.37,0.05L154.62,51.35z"/>
<path class="st1" d="M152.38,73.98c0.07,0,0.1-0.03,0.11-0.09v-0.04c-0.01-0.05-0.04-0.08-0.11-0.08h-0.13v0.2H152.38z
	 M152.48,74.07l0.12,0.22h-0.12l-0.1-0.21h-0.13v0.2h-0.12v-0.61h0.24c0.15,0,0.21,0.06,0.22,0.17c0,0.02,0,0.03,0,0.04
	C152.59,73.99,152.55,74.05,152.48,74.07 M152.8,73.99c0-0.26-0.2-0.46-0.45-0.46c-0.24,0-0.45,0.21-0.45,0.46
	c0,0.25,0.2,0.46,0.45,0.46C152.6,74.46,152.8,74.25,152.8,73.99 M152.93,73.99c0,0.32-0.26,0.58-0.58,0.58
	c-0.32,0-0.58-0.26-0.58-0.58c0-0.32,0.26-0.58,0.58-0.58C152.67,73.41,152.93,73.67,152.93,73.99"/>
<polygon class="st2" points="22.85,120.33 22.85,106.65 20.67,106.65 20.67,104.45 27.46,104.45 27.46,106.65 25.28,106.65 
	25.28,120.33 "/>
<polygon class="st2" points="34.42,111.14 34.42,104.45 36.85,104.45 36.85,120.33 34.42,120.33 34.42,113.34 32.08,113.34 
	32.08,120.33 29.65,120.33 29.65,104.45 32.08,104.45 32.08,111.14 "/>
<polygon class="st2" points="44.95,104.45 44.95,106.65 41.97,106.65 41.97,111.14 44.83,111.14 44.83,113.34 41.97,113.34 
	41.97,118.13 44.99,118.13 44.99,120.33 39.55,120.33 39.55,104.45 "/>
<path class="st2" d="M58.72,117.52c0,1.97-0.98,2.95-2.95,2.95h-1.18c-1.98,0-2.95-0.98-2.95-2.95v-13.07h2.43v12.96
	c0,0.64,0.29,0.93,0.93,0.93h0.39c0.61,0,0.91-0.3,0.91-0.93v-12.96h2.43V117.52z"/>
<polygon class="st2" points="66.02,120.33 63.55,109.64 63.57,112.43 63.57,120.33 61.39,120.33 61.39,104.45 64.23,104.45 
	66.5,114.25 66.48,111.59 66.48,104.45 68.66,104.45 68.66,120.33 "/>
<rect x="71.38" y="104.45" class="st2" width="2.43" height="15.89"/>
<polygon class="st2" points="78.41,120.36 76.07,104.45 78.53,104.45 79.96,116.29 81.43,104.45 83.75,104.45 81.39,120.36 "/>
<polygon class="st2" points="91.37,104.45 91.37,106.65 88.4,106.65 88.4,111.14 91.25,111.14 91.25,113.34 88.4,113.34 
	88.4,118.13 91.41,118.13 91.41,120.33 85.97,120.33 85.97,104.45 "/>
<path class="st2" d="M97.56,106.6h-1.18v5.24h1.09c0.68,0,1-0.32,1-0.98v-3.36C98.47,106.9,98.17,106.6,97.56,106.6 M100.92,114.93
	v5.4h-2.43v-5.36c0-0.7-0.32-1.02-1.02-1.02h-1.09v6.38h-2.43v-15.89h4c1.97,0,2.95,0.98,2.95,2.95v3c0,1.41-0.5,2.09-1.38,2.45
	C100.51,113.12,100.92,113.73,100.92,114.93"/>
<path class="st2" d="M110.45,114.93v2.59c0,1.98-0.98,2.95-2.95,2.95h-1.07c-1.98,0-2.93-0.98-2.93-2.93v-3.36h2.36v3.27
	c0,0.61,0.29,0.91,0.93,0.91h0.32c0.64,0,0.93-0.29,0.93-0.91v-2.18c0-0.66-0.23-0.95-0.68-1.29l-2.45-1.79
	c-1.09-0.77-1.41-1.52-1.41-2.75v-2.18c0-1.98,0.98-2.95,2.95-2.95h1.02c1.95,0,2.93,0.98,2.93,2.93v2.88h-2.38v-2.79
	c0-0.61-0.29-0.91-0.91-0.91h-0.29c-0.61,0-0.91,0.3-0.91,0.91v1.77c0,0.66,0.23,0.98,0.68,1.29l2.45,1.79
	C110.11,112.96,110.45,113.64,110.45,114.93"/>
<rect x="113.03" y="104.45" class="st2" width="2.43" height="15.89"/>
<polygon class="st2" points="119.86,120.33 119.86,106.65 117.68,106.65 117.68,104.45 124.47,104.45 124.47,106.65 122.29,106.65 
	122.29,120.33 "/>
<polygon class="st2" points="130.96,114.68 130.96,120.33 128.53,120.33 128.53,114.93 125.92,104.45 128.42,104.45 129.78,111.21 
	131.23,104.45 133.57,104.45 "/>
<path class="st2" d="M143.55,106.44h-0.5c-0.64,0-0.93,0.29-0.93,0.93v10.03c0,0.64,0.29,0.93,0.93,0.93h0.5
	c0.61,0,0.91-0.3,0.91-0.93v-10.03C144.46,106.74,144.16,106.44,143.55,106.44 M143.94,120.47h-1.29c-1.97,0-2.95-0.98-2.95-2.95
	v-10.26c0-1.98,0.98-2.95,2.95-2.95h1.29c1.97,0,2.95,0.97,2.95,2.95v10.26C146.89,119.49,145.91,120.47,143.94,120.47"/>
<polygon class="st2" points="154.83,104.45 154.83,106.65 151.97,106.65 151.97,111.23 154.71,111.23 154.71,113.43 151.97,113.43 
	151.97,120.33 149.54,120.33 149.54,104.45 "/>
<polygon class="st2" points="163.08,120.33 163.08,106.65 160.91,106.65 160.91,104.45 167.69,104.45 167.69,106.65 165.51,106.65 
	165.51,120.33 "/>
<polygon class="st2" points="175.29,104.45 175.29,106.65 172.32,106.65 172.32,111.14 175.18,111.14 175.18,113.34 172.32,113.34 
	172.32,118.13 175.34,118.13 175.34,120.33 169.89,120.33 169.89,104.45 "/>
<polygon class="st2" points="182.76,112.3 184.98,120.33 182.48,120.33 181.14,114.64 179.71,120.33 177.38,120.33 179.6,112.5 
	177.42,104.45 179.92,104.45 181.24,110.12 182.6,104.45 184.93,104.45 "/>
<path class="st2" d="M189.27,115.68h1.97l-1-8.04L189.27,115.68z M194.24,120.33h-2.41l-0.32-2.5h-2.52l-0.29,2.5h-2.25l2.27-15.91
	h3.23L194.24,120.33z"/>
<path class="st2" d="M203.24,114.93v2.59c0,1.98-0.98,2.95-2.95,2.95h-1.07c-1.98,0-2.93-0.98-2.93-2.93v-3.36h2.36v3.27
	c0,0.61,0.29,0.91,0.93,0.91h0.32c0.64,0,0.93-0.29,0.93-0.91v-2.18c0-0.66-0.23-0.95-0.68-1.29l-2.45-1.79
	c-1.09-0.77-1.41-1.52-1.41-2.75v-2.18c0-1.98,0.98-2.95,2.95-2.95h1.02c1.95,0,2.93,0.98,2.93,2.93v2.88h-2.38v-2.79
	c0-0.61-0.29-0.91-0.91-0.91h-0.29c-0.61,0-0.91,0.3-0.91,0.91v1.77c0,0.66,0.23,0.98,0.68,1.29l2.45,1.79
	C202.9,112.96,203.24,113.64,203.24,114.93"/>
<path class="st2" d="M212.29,115.68h1.98l-1-8.04L212.29,115.68z M217.27,120.33h-2.41l-0.32-2.5h-2.52l-0.29,2.5h-2.25l2.27-15.91
	h3.22L217.27,120.33z"/>
<polygon class="st2" points="220.28,120.33 220.28,106.65 218.1,106.65 218.1,104.45 224.89,104.45 224.89,106.65 222.71,106.65 
	222.71,120.33 "/>
<polygon class="st2" points="236.62,104.45 236.62,106.65 233.64,106.65 233.64,111.14 236.5,111.14 236.5,113.34 233.64,113.34 
	233.64,118.13 236.66,118.13 236.66,120.33 231.22,120.33 231.22,104.45 "/>
<polygon class="st2" points="241.63,104.45 241.63,118.13 244.31,118.13 244.31,120.33 239.2,120.33 239.2,104.45 "/>
<path class="st2" d="M254.22,106.58h-1v5.86h1c0.61,0,0.91-0.29,0.91-0.93v-3.99C255.13,106.87,254.83,106.58,254.22,106.58
	 M253.22,120.33h-2.43v-15.89h3.81c1.97,0,2.95,0.98,2.95,2.95v4.22c0,1.98-0.98,2.95-2.95,2.95h-1.38V120.33z"/>
<path class="st2" d="M261.8,115.68h1.97l-1-8.04L261.8,115.68z M266.77,120.33h-2.41l-0.32-2.5h-2.52l-0.29,2.5h-2.25l2.27-15.91
	h3.23L266.77,120.33z"/>
<path class="st2" d="M275.78,114.93v2.59c0,1.98-0.98,2.95-2.95,2.95h-1.07c-1.98,0-2.93-0.98-2.93-2.93v-3.36h2.36v3.27
	c0,0.61,0.29,0.91,0.93,0.91h0.32c0.64,0,0.93-0.29,0.93-0.91v-2.18c0-0.66-0.23-0.95-0.68-1.29l-2.45-1.79
	c-1.09-0.77-1.41-1.52-1.41-2.75v-2.18c0-1.98,0.98-2.95,2.95-2.95h1.02c1.95,0,2.93,0.98,2.93,2.93v2.88h-2.38v-2.79
	c0-0.61-0.29-0.91-0.91-0.91h-0.29c-0.61,0-0.91,0.3-0.91,0.91v1.77c0,0.66,0.23,0.98,0.68,1.29l2.45,1.79
	C275.44,112.96,275.78,113.64,275.78,114.93"/>
<path class="st2" d="M282.15,106.44h-0.5c-0.64,0-0.93,0.29-0.93,0.93v10.03c0,0.64,0.3,0.93,0.93,0.93h0.5
	c0.61,0,0.91-0.3,0.91-0.93v-10.03C283.06,106.74,282.76,106.44,282.15,106.44 M282.54,120.47h-1.29c-1.98,0-2.95-0.98-2.95-2.95
	v-10.26c0-1.98,0.97-2.95,2.95-2.95h1.29c1.97,0,2.95,0.97,2.95,2.95v10.26C285.49,119.49,284.51,120.47,282.54,120.47"/>
</svg>
