<?xml version="1.0" encoding="utf-8"?>
<!-- Generator: Adobe Illustrator 27.4.1, SVG Export Plug-In . SVG Version: 6.00 Build 0)  -->
<svg version="1.1" id="Layer_1" xmlns="http://www.w3.org/2000/svg" xmlns:xlink="http://www.w3.org/1999/xlink" x="0px" y="0px"
	 viewBox="0 0 300 200" style="enable-background:new 0 0 300 200;" xml:space="preserve">
<style type="text/css">
	.st0{fill:#F28221;}
	.st1{fill:#FFFFFF;}
	.st2{fill:#4D4D4F;}
</style>
<rect x="43.43" y="77.91" class="st0" width="51.93" height="43.6"/>
<path class="st1" d="M70.8,88.28l-2.74,0.06l-0.27,0.87l-1.65,0.03l-0.12,0.32c-4.69,0.15-9.09,2.51-10.53,3.63l9.35-0.36
	l-0.23,0.75l2.42-0.05l-3.85,17.54l3.34-1.07l3.22-16.53l1.83-0.04l0.23-0.84l11.92-0.32c-2.22-1.35-7.88-2.82-11.07-2.78l0.11-0.4
	l-2.14,0.05L70.8,88.28z"/>
<path class="st1" d="M68.78,108.72c0.06,0,0.09-0.03,0.1-0.08v-0.04c0-0.04-0.03-0.07-0.1-0.07h-0.12v0.18H68.78z M68.87,108.8
	l0.11,0.2h-0.11l-0.09-0.19h-0.11V109h-0.1v-0.55h0.22c0.13,0,0.19,0.05,0.2,0.15c0,0.02,0,0.03,0,0.04
	C68.97,108.72,68.94,108.77,68.87,108.8 M69.15,108.73c0-0.23-0.18-0.42-0.4-0.42c-0.22,0-0.4,0.19-0.4,0.42
	c0,0.23,0.18,0.42,0.4,0.42C68.98,109.15,69.15,108.96,69.15,108.73 M69.28,108.73c0,0.29-0.24,0.52-0.53,0.52
	c-0.29,0-0.52-0.23-0.52-0.52c0-0.29,0.23-0.52,0.52-0.52C69.04,108.21,69.28,108.44,69.28,108.73"/>
<polygon class="st2" points="107.91,96.64 107.91,84.28 105.94,84.28 105.94,82.29 112.07,82.29 112.07,84.28 110.1,84.28 
	110.1,96.64 "/>
<polygon class="st2" points="118.36,88.33 118.36,82.29 120.55,82.29 120.55,96.64 118.36,96.64 118.36,90.32 116.24,90.32 
	116.24,96.64 114.05,96.64 114.05,82.29 116.24,82.29 116.24,88.33 "/>
<polygon class="st2" points="127.86,82.29 127.86,84.27 125.18,84.27 125.18,88.33 127.76,88.33 127.76,90.32 125.18,90.32 
	125.18,94.65 127.91,94.65 127.91,96.64 122.99,96.64 122.99,82.29 "/>
<path class="st2" d="M140.3,94.09c0,1.78-0.88,2.66-2.67,2.66h-1.06c-1.78,0-2.67-0.88-2.67-2.66V82.29h2.19v11.7
	c0,0.57,0.27,0.84,0.84,0.84h0.35c0.55,0,0.82-0.27,0.82-0.84v-11.7h2.19V94.09z"/>
<polygon class="st2" points="146.9,96.64 144.67,86.98 144.69,89.5 144.69,96.64 142.72,96.64 142.72,82.29 145.28,82.29 
	147.33,91.14 147.31,88.74 147.31,82.29 149.28,82.29 149.28,96.64 "/>
<rect x="151.74" y="82.29" class="st2" width="2.19" height="14.35"/>
<polygon class="st2" points="158.09,96.66 155.98,82.29 158.19,82.29 159.48,92.99 160.82,82.29 162.91,82.29 160.77,96.66 "/>
<polygon class="st2" points="169.79,82.29 169.79,84.27 167.1,84.27 167.1,88.33 169.69,88.33 169.69,90.32 167.1,90.32 
	167.1,94.65 169.83,94.65 169.83,96.64 164.91,96.64 164.91,82.29 "/>
<path class="st2" d="M175.38,84.23h-1.07v4.74h0.98c0.61,0,0.9-0.29,0.9-0.88v-3.03C176.2,84.5,175.94,84.23,175.38,84.23
	 M178.42,91.76v4.88h-2.19V91.8c0-0.64-0.29-0.92-0.92-0.92h-0.98v5.76h-2.19V82.29h3.61c1.78,0,2.66,0.88,2.66,2.66v2.71
	c0,1.27-0.45,1.89-1.25,2.21C178.05,90.12,178.42,90.67,178.42,91.76"/>
<path class="st2" d="M187.02,91.76v2.34c0,1.78-0.88,2.66-2.67,2.66h-0.96c-1.78,0-2.64-0.88-2.64-2.64v-3.03h2.13v2.95
	c0,0.55,0.27,0.82,0.84,0.82h0.29c0.57,0,0.84-0.26,0.84-0.82v-1.97c0-0.59-0.21-0.86-0.62-1.17l-2.21-1.62
	c-0.98-0.7-1.27-1.37-1.27-2.48v-1.97c0-1.78,0.88-2.66,2.66-2.66h0.92c1.76,0,2.64,0.88,2.64,2.64v2.6h-2.15v-2.52
	c0-0.55-0.27-0.82-0.82-0.82h-0.27c-0.55,0-0.82,0.27-0.82,0.82v1.6c0,0.6,0.2,0.88,0.62,1.17l2.21,1.62
	C186.72,89.97,187.02,90.59,187.02,91.76"/>
<rect x="189.36" y="82.29" class="st2" width="2.19" height="14.35"/>
<polygon class="st2" points="195.53,96.64 195.53,84.28 193.56,84.28 193.56,82.29 199.69,82.29 199.69,84.28 197.72,84.28 
	197.72,96.64 "/>
<polygon class="st2" points="205.55,91.53 205.55,96.64 203.35,96.64 203.35,91.76 201,82.29 203.25,82.29 204.48,88.39 
	205.79,82.29 207.9,82.29 "/>
<path class="st2" d="M216.92,84.09h-0.45c-0.57,0-0.84,0.27-0.84,0.84v9.06c0,0.57,0.27,0.84,0.84,0.84h0.45
	c0.55,0,0.82-0.27,0.82-0.84v-9.06C217.74,84.36,217.47,84.09,216.92,84.09 M217.27,96.76h-1.17c-1.78,0-2.66-0.88-2.66-2.66v-9.26
	c0-1.78,0.88-2.66,2.66-2.66h1.17c1.78,0,2.66,0.88,2.66,2.66v9.26C219.93,95.88,219.05,96.76,217.27,96.76"/>
<polygon class="st2" points="227.1,82.29 227.1,84.27 224.52,84.27 224.52,88.42 227,88.42 227,90.4 224.52,90.4 224.52,96.64 
	222.33,96.64 222.33,82.29 "/>
<polygon class="st2" points="234.56,96.64 234.56,84.28 232.59,84.28 232.59,82.29 238.72,82.29 238.72,84.28 236.75,84.28 
	236.75,96.64 "/>
<polygon class="st2" points="245.59,82.29 245.59,84.27 242.9,84.27 242.9,88.33 245.48,88.33 245.48,90.32 242.9,90.32 
	242.9,94.65 245.63,94.65 245.63,96.64 240.71,96.64 240.71,82.29 "/>
<polygon class="st2" points="252.33,89.38 254.34,96.64 252.08,96.64 250.87,91.49 249.58,96.64 247.47,96.64 249.48,89.56 
	247.51,82.29 249.77,82.29 250.95,87.41 252.19,82.29 254.3,82.29 "/>
<path class="st2" d="M258.21,92.43h1.78l-0.9-7.26L258.21,92.43z M262.7,96.64h-2.17l-0.29-2.25h-2.28l-0.27,2.25h-2.03l2.05-14.37
	h2.91L262.7,96.64z"/>
<path class="st2" d="M270.83,91.76v2.34c0,1.78-0.88,2.66-2.66,2.66h-0.96c-1.78,0-2.64-0.88-2.64-2.64v-3.03h2.13v2.95
	c0,0.55,0.27,0.82,0.84,0.82h0.29c0.57,0,0.84-0.26,0.84-0.82v-1.97c0-0.59-0.21-0.86-0.62-1.17l-2.21-1.62
	c-0.98-0.7-1.27-1.37-1.27-2.48v-1.97c0-1.78,0.88-2.66,2.66-2.66h0.92c1.76,0,2.64,0.88,2.64,2.64v2.6h-2.15v-2.52
	c0-0.55-0.27-0.82-0.82-0.82h-0.27c-0.55,0-0.82,0.27-0.82,0.82v1.6c0,0.6,0.2,0.88,0.62,1.17l2.21,1.62
	C270.52,89.97,270.83,90.59,270.83,91.76"/>
<path class="st2" d="M108.52,112.93h1.78l-0.9-7.26L108.52,112.93z M113.01,117.13h-2.17l-0.29-2.25h-2.28l-0.27,2.25h-2.03
	l2.05-14.37h2.91L113.01,117.13z"/>
<polygon class="st2" points="115.73,117.13 115.73,104.77 113.77,104.77 113.77,102.78 119.89,102.78 119.89,104.77 117.93,104.77 
	117.93,117.13 "/>
<polygon class="st2" points="130.49,102.78 130.49,104.77 127.8,104.77 127.8,108.83 130.38,108.83 130.38,110.81 127.8,110.81 
	127.8,115.14 130.53,115.14 130.53,117.13 125.61,117.13 125.61,102.78 "/>
<polygon class="st2" points="135.02,102.78 135.02,115.14 137.43,115.14 137.43,117.13 132.82,117.13 132.82,102.78 "/>
<path class="st2" d="M146.39,104.71h-0.9v5.29h0.9c0.55,0,0.82-0.27,0.82-0.84v-3.61C147.21,104.97,146.94,104.71,146.39,104.71
	 M145.49,117.13h-2.19v-14.35h3.45c1.78,0,2.66,0.88,2.66,2.66v3.81c0,1.79-0.88,2.66-2.66,2.66h-1.25V117.13z"/>
<path class="st2" d="M153.23,112.93h1.78l-0.9-7.26L153.23,112.93z M157.72,117.13h-2.17l-0.29-2.25h-2.28l-0.27,2.25h-2.03
	l2.05-14.37h2.91L157.72,117.13z"/>
<path class="st2" d="M165.86,112.25v2.34c0,1.78-0.88,2.66-2.66,2.66h-0.96c-1.78,0-2.64-0.88-2.64-2.64v-3.03h2.13v2.95
	c0,0.55,0.27,0.82,0.84,0.82h0.29c0.57,0,0.84-0.27,0.84-0.82v-1.97c0-0.59-0.21-0.86-0.61-1.17l-2.21-1.62
	c-0.98-0.7-1.27-1.37-1.27-2.48v-1.97c0-1.78,0.88-2.66,2.66-2.66h0.92c1.76,0,2.64,0.88,2.64,2.64v2.6h-2.15v-2.52
	c0-0.55-0.26-0.82-0.82-0.82h-0.27c-0.55,0-0.82,0.27-0.82,0.82v1.6c0,0.6,0.21,0.88,0.62,1.17l2.21,1.62
	C165.55,110.46,165.86,111.08,165.86,112.25"/>
<path class="st2" d="M171.61,104.58h-0.45c-0.57,0-0.84,0.27-0.84,0.84v9.06c0,0.57,0.27,0.84,0.84,0.84h0.45
	c0.55,0,0.82-0.27,0.82-0.84v-9.06C172.43,104.85,172.17,104.58,171.61,104.58 M171.96,117.25h-1.17c-1.78,0-2.66-0.88-2.66-2.66
	v-9.26c0-1.79,0.88-2.66,2.66-2.66h1.17c1.78,0,2.66,0.88,2.66,2.66v9.26C174.63,116.37,173.74,117.25,171.96,117.25"/>
</svg>
