<?xml version="1.0" encoding="utf-8"?>
<!-- Generator: Adobe Illustrator 27.4.1, SVG Export Plug-In . SVG Version: 6.00 Build 0)  -->
<svg version="1.1" id="Layer_1" xmlns="http://www.w3.org/2000/svg" xmlns:xlink="http://www.w3.org/1999/xlink" x="0px" y="0px"
	 viewBox="0 0 300 200" style="enable-background:new 0 0 300 200;" xml:space="preserve">
<style type="text/css">
	.st0{fill:#F28221;}
	.st1{fill:#FFFFFF;}
	.st2{fill:#4D4D4F;}
</style>
<rect x="72.12" y="70.03" class="st0" width="76.43" height="64.17"/>
<path class="st1" d="M112.41,85.3l-4.03,0.09l-0.4,1.28l-2.43,0.05l-0.17,0.48c-6.9,0.21-13.38,3.69-15.49,5.33L103.66,92
	l-0.34,1.11l3.56-0.08l-5.66,25.82l4.91-1.57l4.73-24.33l2.69-0.06l0.34-1.23l17.54-0.48c-3.27-1.98-11.6-4.15-16.29-4.09l0.16-0.58
	l-3.15,0.07L112.41,85.3z"/>
<path class="st1" d="M109.43,115.38c0.09,0,0.13-0.04,0.14-0.11v-0.05c-0.01-0.06-0.05-0.1-0.14-0.1h-0.17v0.27H109.43z
	 M109.56,115.5l0.16,0.29h-0.16l-0.14-0.27h-0.16v0.27h-0.16v-0.81h0.33c0.19,0,0.28,0.08,0.29,0.23c0,0.02,0,0.04,0,0.06
	C109.71,115.38,109.66,115.46,109.56,115.5 M109.98,115.39c0-0.34-0.26-0.62-0.59-0.62c-0.33,0-0.59,0.27-0.59,0.62
	c0,0.34,0.26,0.62,0.59,0.62C109.72,116.01,109.98,115.73,109.98,115.39 M110.16,115.39c0,0.42-0.35,0.77-0.77,0.77
	c-0.43,0-0.77-0.34-0.77-0.77c0-0.43,0.34-0.77,0.77-0.77C109.82,114.62,110.16,114.96,110.16,115.39"/>
<path class="st2" d="M183.24,115.82c0,5.13-2.53,7.66-7.66,7.66h-3.07c-5.13,0-7.66-2.53-7.66-7.66V81.88h6.31v33.65
	c0,1.65,0.76,2.42,2.42,2.42h1c1.59,0,2.36-0.77,2.36-2.42V81.88h6.31V115.82z"/>
<polygon class="st2" points="194.55,123.13 194.55,87.6 188.89,87.6 188.89,81.88 206.51,81.88 206.51,87.6 200.86,87.6 
	200.86,123.13 "/>
<polygon class="st2" points="226.25,81.88 226.25,87.6 218.52,87.6 218.52,99.26 225.95,99.26 225.95,104.98 218.52,104.98 
	218.52,117.41 226.36,117.41 226.36,123.13 212.22,123.13 212.22,81.88 "/>
<path class="st2" d="M241.86,87.42h-2.59v15.21h2.59c1.59,0,2.36-0.77,2.36-2.42V89.84C244.21,88.19,243.45,87.42,241.86,87.42
	 M239.26,123.13h-6.31V81.88h9.9c5.13,0,7.66,2.53,7.66,7.66v10.96c0,5.13-2.53,7.66-7.66,7.66h-3.59V123.13z"/>
</svg>
