<?xml version="1.0" encoding="utf-8"?>
<!-- Generator: Adobe Illustrator 27.4.1, SVG Export Plug-In . SVG Version: 6.00 Build 0)  -->
<svg version="1.1" id="Layer_1" xmlns="http://www.w3.org/2000/svg" xmlns:xlink="http://www.w3.org/1999/xlink" x="0px" y="0px"
	 viewBox="0 0 300 200" style="enable-background:new 0 0 300 200;" xml:space="preserve">
<style type="text/css">
	.st0{fill:#010101;}
</style>
<path class="st0" d="M166.85,47.28l-12.01,0.26l-1.17,3.82l-7.23,0.16l-0.51,1.42c-20.54,0.64-39.85,11-46.13,15.89l41-1.57l-1,3.29
	l10.6-0.23l-16.86,76.86l14.63-4.67l14.09-72.45l8.02-0.18l1-3.66l52.24-1.41c-9.74-5.9-34.52-12.35-48.5-12.18l0.48-1.74l-9.38,0.2
	L166.85,47.28z"/>
<path class="st0" d="M96.19,77.85l-3.57,13.71l7.94-0.38l-6.85,27.09c-3.02,13.96,2.49,23.41,11.32,24.16
	c7.76,0.66,21-2.1,24.94-14.37c3.91-12.13,13.2-51.92,13.2-51.92l-15.58,0.58l-9.44,40.74c-1.53,5.61-4.25,8.56-6.29,7.87
	c-2.04-0.69-2.3-3.27-0.78-9.68c1.52-6.4,9.26-38.72,9.26-38.72L96.19,77.85z"/>
<polygon class="st0" points="167.1,75.32 164.64,88.58 168.53,88.45 163.85,112.35 159.88,112.96 156.41,130.73 191.97,121.48 
	194.34,108.4 177.49,110.52 178.21,105.79 186.28,104.8 188.64,91.39 180.85,92.01 181.52,87.65 193.58,86.76 195.63,74.29 "/>
<path class="st0" d="M229.01,73l-28.5,1.06l-2,12.22l4.27-0.37l-5.75,34.4l11.07-2.87l2.64-14.23
	C228.56,98.25,229.08,75.41,229.01,73 M212.21,93.15l1.32-8.8l6.11-0.37C219.69,85.36,216.75,92.05,212.21,93.15"/>
<path class="st0" d="M160.17,136.89c0,1.27-1.03,2.29-2.3,2.29c-1.27,0-2.29-1.02-2.29-2.29c0-1.27,1.02-2.29,2.29-2.29
	C159.14,134.6,160.17,135.62,160.17,136.89 M159.64,136.89c0-1.02-0.79-1.83-1.77-1.83c-0.97,0-1.76,0.81-1.76,1.83
	c0,1.01,0.79,1.83,1.76,1.83C158.85,138.72,159.64,137.9,159.64,136.89 M158.39,137.2l0.47,0.88h-0.49l-0.4-0.81h-0.49v0.81h-0.46
	v-2.4h0.97c0.57,0,0.83,0.24,0.86,0.67c0.01,0.07,0.01,0.11,0,0.18C158.82,136.86,158.68,137.09,158.39,137.2 M157.99,136.85
	c0.26,0,0.4-0.13,0.42-0.34v-0.16c-0.02-0.19-0.16-0.3-0.42-0.3h-0.52v0.8H157.99z"/>
</svg>
