<?xml version="1.0" encoding="utf-8"?>
<!-- Generator: Adobe Illustrator 27.4.1, SVG Export Plug-In . SVG Version: 6.00 Build 0)  -->
<svg version="1.1" id="Layer_1" xmlns="http://www.w3.org/2000/svg" xmlns:xlink="http://www.w3.org/1999/xlink" x="0px" y="0px"
	 viewBox="0 0 300 200" style="enable-background:new 0 0 300 200;" xml:space="preserve">
<style type="text/css">
	.st0{fill:#131B47;}
	.st1{fill:#F58220;}
</style>
<rect x="64.34" y="35.64" class="st0" width="162.79" height="136.67"/>
<path class="st1" d="M150.14,68.16l-8.59,0.18l-0.84,2.73l-5.17,0.11l-0.36,1.01c-14.69,0.46-28.5,7.87-33,11.36l29.33-1.12
	l-0.72,2.35l7.58-0.17l-12.06,54.98l10.46-3.35l10.08-51.82l5.74-0.13l0.72-2.62l37.36-1.01c-6.97-4.22-24.69-8.83-34.69-8.71
	l0.34-1.24l-6.71,0.15L150.14,68.16z"/>
<path class="st1" d="M99.59,90.03l-2.56,9.81l5.68-0.27l-4.9,19.38c-2.16,9.99,1.78,16.75,8.09,17.28
	c5.55,0.47,15.02-1.5,17.84-10.27c2.8-8.68,9.44-37.14,9.44-37.14l-11.14,0.41l-6.75,29.14c-1.1,4.02-3.04,6.12-4.5,5.63
	c-1.46-0.49-1.65-2.34-0.56-6.93c1.09-4.58,6.63-27.69,6.63-27.69L99.59,90.03z"/>
<polygon class="st1" points="150.32,88.22 148.56,97.7 151.33,97.6 147.99,114.7 145.15,115.14 142.67,127.85 168.1,121.23 
	169.8,111.88 157.75,113.39 158.26,110.01 164.04,109.3 165.72,99.71 160.15,100.16 160.64,97.04 169.25,96.4 170.72,87.48 "/>
<path class="st1" d="M194.6,86.56l-20.38,0.76l-1.43,8.74l3.05-0.26l-4.12,24.6l7.92-2.05l1.89-10.18
	C194.27,104.62,194.65,88.28,194.6,86.56 M182.58,100.97l0.94-6.3l4.37-0.26C187.93,95.4,185.83,100.18,182.58,100.97"/>
<path class="st1" d="M145.36,132.26c0,0.91-0.74,1.64-1.65,1.64c-0.91,0-1.64-0.74-1.64-1.64c0-0.91,0.73-1.64,1.64-1.64
	C144.62,130.62,145.36,131.35,145.36,132.26 M144.98,132.26c0-0.73-0.56-1.31-1.26-1.31c-0.69,0-1.26,0.58-1.26,1.31
	c0,0.72,0.56,1.31,1.26,1.31C144.41,133.57,144.98,132.98,144.98,132.26 M144.08,132.48l0.34,0.63h-0.35l-0.29-0.58h-0.35v0.58
	h-0.33v-1.72h0.69c0.41,0,0.59,0.17,0.61,0.48c0,0.05,0,0.08,0,0.12C144.39,132.23,144.29,132.4,144.08,132.48 M143.8,132.23
	c0.18,0,0.28-0.09,0.3-0.24v-0.12c-0.01-0.14-0.11-0.21-0.3-0.21h-0.37v0.57H143.8z"/>
</svg>
