<?xml version="1.0" encoding="utf-8"?>
<!-- Generator: Adobe Illustrator 27.4.1, SVG Export Plug-In . SVG Version: 6.00 Build 0)  -->
<svg version="1.1" id="Layer_1" xmlns="http://www.w3.org/2000/svg" xmlns:xlink="http://www.w3.org/1999/xlink" x="0px" y="0px"
	 viewBox="0 0 300 200" style="enable-background:new 0 0 300 200;" xml:space="preserve">
<style type="text/css">
	.st0{fill:#FFFFFF;}
	.st1{fill:#B4B3B2;}
</style>
<rect x="86.01" y="34.38" class="st0" width="142.33" height="119.5"/>
<path class="st1" d="M161.03,62.82l-7.51,0.16l-0.73,2.39l-4.52,0.1l-0.32,0.89c-12.85,0.4-24.92,6.88-28.85,9.94l25.64-0.98
	l-0.63,2.06l6.63-0.15l-10.54,48.07l9.15-2.93l8.81-45.31l5.02-0.11l0.63-2.29l32.67-0.88c-6.09-3.69-21.59-7.72-30.33-7.62
	l0.3-1.09l-5.87,0.13L161.03,62.82z"/>
<path class="st1" d="M116.83,81.93l-2.23,8.58l4.97-0.24l-4.29,16.94c-1.89,8.73,1.56,14.64,7.08,15.11
	c4.85,0.41,13.13-1.31,15.6-8.98c2.44-7.59,8.26-32.47,8.26-32.47l-9.74,0.36l-5.9,25.48c-0.96,3.51-2.66,5.35-3.94,4.92
	c-1.28-0.43-1.44-2.05-0.49-6.05c0.95-4.01,5.79-24.21,5.79-24.21L116.83,81.93z"/>
<polygon class="st1" points="161.18,80.35 159.64,88.65 162.07,88.56 159.15,103.51 156.67,103.89 154.5,115 176.73,109.22 
	178.21,101.04 167.68,102.37 168.13,99.41 173.18,98.79 174.65,90.4 169.78,90.79 170.2,88.06 177.74,87.51 179.02,79.71 "/>
<path class="st1" d="M199.9,78.9l-17.83,0.67l-1.25,7.64l2.67-0.23l-3.6,21.51l6.92-1.79l1.65-8.9
	C199.62,94.69,199.94,80.41,199.9,78.9 M189.39,91.5l0.83-5.51l3.82-0.23C194.07,86.63,192.23,90.82,189.39,91.5"/>
<path class="st1" d="M156.85,118.86c0,0.79-0.64,1.43-1.44,1.43c-0.79,0-1.43-0.64-1.43-1.43c0-0.79,0.64-1.43,1.43-1.43
	C156.2,117.42,156.85,118.06,156.85,118.86 M156.51,118.86c0-0.64-0.49-1.15-1.11-1.15c-0.61,0-1.1,0.51-1.1,1.15
	c0,0.63,0.49,1.15,1.1,1.15C156.02,120,156.51,119.49,156.51,118.86 M155.73,119.05l0.3,0.55h-0.31l-0.25-0.51h-0.31v0.5h-0.29v-1.5
	h0.6c0.36,0,0.52,0.15,0.54,0.42c0,0.04,0,0.07,0,0.11C156,118.84,155.92,118.98,155.73,119.05 M155.48,118.83
	c0.16,0,0.25-0.08,0.26-0.21v-0.1c-0.01-0.12-0.1-0.19-0.26-0.19h-0.32v0.5H155.48z"/>
</svg>
