<?xml version="1.0" encoding="utf-8"?>
<!-- Generator: Adobe Illustrator 27.4.1, SVG Export Plug-In . SVG Version: 6.00 Build 0)  -->
<svg version="1.1" id="Layer_1" xmlns="http://www.w3.org/2000/svg" xmlns:xlink="http://www.w3.org/1999/xlink" x="0px" y="0px"
	 viewBox="0 0 300 200" style="enable-background:new 0 0 300 200;" xml:space="preserve">
<style type="text/css">
	.st0{fill:#FFFFFF;}
	.st1{fill:#F58220;}
</style>
<rect x="90.25" y="43.62" class="st0" width="130.7" height="109.74"/>
<path class="st1" d="M159.14,69.73l-6.9,0.15l-0.67,2.19l-4.15,0.09l-0.29,0.81c-11.8,0.37-22.88,6.32-26.49,9.12l23.55-0.9
	l-0.58,1.89l6.09-0.13l-9.68,44.15l8.4-2.69l8.09-41.61l4.61-0.1l0.57-2.1l30-0.81c-5.59-3.39-19.83-7.09-27.85-6.99l0.27-1
	l-5.39,0.12L159.14,69.73z"/>
<path class="st1" d="M118.56,87.29l-2.05,7.88l4.56-0.22l-3.94,15.56c-1.73,8.02,1.43,13.45,6.5,13.87
	c4.46,0.38,12.06-1.2,14.32-8.25c2.24-6.97,7.58-29.82,7.58-29.82l-8.95,0.33l-5.42,23.4c-0.88,3.22-2.44,4.92-3.62,4.52
	c-1.17-0.39-1.32-1.88-0.45-5.56c0.87-3.68,5.32-22.24,5.32-22.24L118.56,87.29z"/>
<polygon class="st1" points="159.28,85.84 157.87,93.45 160.1,93.37 157.41,107.1 155.14,107.45 153.14,117.66 173.57,112.35 
	174.92,104.84 165.25,106.05 165.66,103.34 170.3,102.77 171.65,95.07 167.18,95.42 167.57,92.92 174.49,92.41 175.67,85.25 "/>
<path class="st1" d="M194.84,84.5l-16.37,0.61l-1.15,7.02l2.45-0.21l-3.3,19.75l6.36-1.65l1.52-8.17
	C194.58,99.01,194.88,85.89,194.84,84.5 M185.19,96.08l0.76-5.06l3.51-0.21C189.49,91.6,187.8,95.45,185.19,96.08"/>
<path class="st1" d="M155.3,121.2c0,0.73-0.59,1.32-1.32,1.32c-0.73,0-1.32-0.59-1.32-1.32c0-0.73,0.59-1.32,1.32-1.32
	C154.71,119.88,155.3,120.47,155.3,121.2 M155,121.2c0-0.59-0.45-1.05-1.02-1.05c-0.56,0-1.01,0.47-1.01,1.05
	c0,0.58,0.45,1.05,1.01,1.05C154.55,122.25,155,121.78,155,121.2 M154.28,121.37l0.27,0.5h-0.28l-0.23-0.47h-0.28v0.46h-0.26v-1.38
	h0.55c0.33,0,0.48,0.14,0.49,0.39c0,0.04,0,0.07,0,0.1C154.53,121.18,154.45,121.31,154.28,121.37 M154.05,121.17
	c0.15,0,0.23-0.07,0.24-0.19v-0.09c-0.01-0.11-0.09-0.17-0.24-0.17h-0.3v0.46H154.05z"/>
</svg>
