<?xml version="1.0" encoding="utf-8"?>
<!-- Generator: Adobe Illustrator 27.4.1, SVG Export Plug-In . SVG Version: 6.00 Build 0)  -->
<svg version="1.1" id="Layer_1" xmlns="http://www.w3.org/2000/svg" xmlns:xlink="http://www.w3.org/1999/xlink" x="0px" y="0px"
	 viewBox="0 0 300 200" style="enable-background:new 0 0 300 200;" xml:space="preserve">
<style type="text/css">
	.st0{fill:#131B47;}
	.st1{fill:#FFFFFF;}
</style>
<rect x="80.22" y="33.64" class="st0" width="152.09" height="127.7"/>
<path class="st1" d="M160.39,64.03l-8.03,0.17l-0.78,2.55l-4.83,0.11l-0.34,0.95c-13.73,0.43-26.63,7.35-30.83,10.62l27.4-1.05
	l-0.67,2.2l7.08-0.16l-11.27,51.37l9.77-3.13l9.42-48.41l5.36-0.12l0.67-2.45l34.91-0.94c-6.51-3.94-23.07-8.25-32.41-8.14
	l0.32-1.16l-6.27,0.14L160.39,64.03z"/>
<path class="st1" d="M113.16,84.46l-2.39,9.17l5.31-0.25l-4.58,18.1c-2.02,9.33,1.67,15.65,7.56,16.14
	c5.19,0.44,14.04-1.4,16.67-9.6c2.61-8.11,8.82-34.7,8.82-34.7l-10.41,0.39l-6.31,27.23c-1.02,3.75-2.84,5.72-4.21,5.26
	c-1.36-0.46-1.54-2.19-0.52-6.47c1.02-4.28,6.19-25.87,6.19-25.87L113.16,84.46z"/>
<polygon class="st1" points="160.55,82.77 158.91,91.63 161.5,91.54 158.38,107.51 155.73,107.92 153.41,119.8 177.17,113.62 
	178.75,104.88 167.49,106.29 167.97,103.13 173.37,102.47 174.95,93.51 169.74,93.92 170.19,91.01 178.25,90.41 179.62,82.08 "/>
<path class="st1" d="M201.93,81.22l-19.05,0.71l-1.34,8.16l2.85-0.25l-3.84,22.98l7.4-1.92l1.77-9.51
	C201.62,98.09,201.97,82.83,201.93,81.22 M190.7,94.69l0.88-5.88l4.08-0.25C195.7,89.48,193.73,93.95,190.7,94.69"/>
<path class="st1" d="M155.92,123.91c0,0.85-0.69,1.53-1.54,1.53c-0.85,0-1.53-0.69-1.53-1.53c0-0.85,0.68-1.53,1.53-1.53
	C155.23,122.38,155.92,123.07,155.92,123.91 M155.56,123.91c0-0.68-0.53-1.23-1.18-1.23c-0.65,0-1.17,0.54-1.17,1.23
	c0,0.68,0.53,1.22,1.17,1.22C155.04,125.14,155.56,124.59,155.56,123.91 M154.73,124.12l0.32,0.59h-0.33l-0.27-0.55h-0.33v0.54
	h-0.31v-1.6h0.64c0.38,0,0.56,0.16,0.57,0.45c0,0.04,0,0.08,0,0.12C155.02,123.89,154.93,124.05,154.73,124.12 M154.46,123.89
	c0.17,0,0.27-0.09,0.28-0.22v-0.11c-0.01-0.13-0.1-0.2-0.28-0.2h-0.35v0.53H154.46z"/>
</svg>
