<?xml version="1.0" encoding="utf-8"?>
<!-- Generator: Adobe Illustrator 27.4.1, SVG Export Plug-In . SVG Version: 6.00 Build 0)  -->
<svg version="1.1" id="Layer_1" xmlns="http://www.w3.org/2000/svg" xmlns:xlink="http://www.w3.org/1999/xlink" x="0px" y="0px"
	 viewBox="0 0 300 200" style="enable-background:new 0 0 300 200;" xml:space="preserve">
<style type="text/css">
	.st0{fill:#B4B3B2;}
	.st1{fill:#131B47;}
	.st2{fill:#F58220;}
</style>
<path class="st0" d="M173.53,51.37l0.39-1.43l-9.45,0.03l0.79-4.01l-14.6,0.31l-1.17,3.79l-7.12-0.04l-0.6,1.67
	c-18.51,0.78-36.98,9.43-46.02,16.13l-3.14,2.51l43.16-1.65l-1.14,3.72l10.82-0.39l-16.93,77.19l17.55-5.61l14.02-72.1l7.97-0.29
	l1-3.66l55.23-1.93C206.17,55.72,188.79,51.65,173.53,51.37"/>
<path class="st0" d="M130.08,122.29c0.95-2.36,10.02-40.94,11.03-45.26l0.52-2.22l-18.32,0.68l-8.09,35.54
	c-1.9,8.57-3.5,12.21-5.69,12.98c-0.2,0.07-0.39,0.11-0.54,0.11c-0.16,0-0.28-0.03-0.42-0.22c-0.48-0.61-0.74-2.22-0.25-4.45
	c0.93-4.18,9.84-41.25,9.93-41.62l0.54-2.23l-26.86,1.01l-4.27,16.4l7.95-0.38c-3.32,12.89-6.46,25.58-6.5,25.71l-0.02,0.07
	c-1.91,9.29,0.36,18.14,4.53,22.15l0.45,0.39l0.08,0.06c0.16,0.12,4.04,3.02,10.64,3.02c4.96,0,10.3-1.59,14.87-4.42
	c6.35-4.32,8.84-12.44,8.84-12.44L130.08,122.29z"/>
<polygon class="st0" points="155.56,111.86 159.53,111.25 163.71,89.87 159.84,90.01 162.79,74.09 194,72.97 191.51,88.05 
	179.47,88.94 179.17,90.84 186.99,90.22 184.17,106.26 176.12,107.25 175.85,109.06 192.76,106.93 189.92,122.61 151.51,132.6 "/>
<path class="st0" d="M196.19,72.84l-2.45,14.96l4.27-0.37l-5.81,34.73l13.85-3.59l2.64-14.22c8.88-2.05,17.8-13.05,18.45-31.08
	l0.02-1.59L196.19,72.84z M211.25,89.8l0.56-3.75l2.13-0.13C213.17,87.68,212.29,88.89,211.25,89.8"/>
<path class="st1" d="M136.7,78.73l-8.4,0.3c0,0-6.9,30.67-8.32,36.63c-1.34,5.49-3.8,9.56-9.93,10.13
	c-3.06,1.05-4.32-2.36-3.38-6.59c0.94-4.24,9.93-41.77,9.93-41.77h-0.02l-3.21,2.18L97.01,80.2l-1.79,6.96l-5.32,4.11L89.9,91.3
	l7.94-0.38c0-0.01,0-0.01,0-0.02l4.65-2.75l-7.26,29.56c-1.54,8.17-3.23,17.18,4.16,24.03c-0.01,0-0.02-0.01-0.03-0.01
	c3.66,1.29,9.91,1.86,18.73-2.93c5.52-3.12,9.46-13.12,11.01-18.37c1.55-4.11,10.35-43.68,10.35-43.68l-0.18,0.01L136.7,78.73z"/>
<polygon class="st2" points="97.01,80.2 113.36,79.61 116.57,77.43 116.59,77.42 93.25,78.31 89.9,91.27 89.91,91.26 95.23,87.16 
	"/>
<path class="st2" d="M95.23,117.71l7.26-29.56l-4.65,2.75c0,0.01,0,0.01,0,0.02c-1.32,5.03-8.28,28.13-7.78,34.74
	c0.17,6.5,2.36,14.18,9.3,16.07c0.01,0,0.02,0,0.03,0.01C92,134.9,93.69,125.88,95.23,117.71"/>
<path class="st2" d="M119.98,115.65c1.42-5.96,8.32-36.62,8.32-36.62l8.4-0.3l2.57-1.97l0.19-0.15l-14.84,0.53
	c0,0-7.29,33.01-8.97,39.26c-1.46,4.97-2.89,8.92-6.77,9.58c0.4-0.01,0.81-0.09,1.19-0.12C116.2,125.3,118.63,121.14,119.98,115.65"
	/>
<polygon class="st1" points="190,86.42 191.62,76.49 167.32,77.55 166.01,84.54 161.91,88.36 165.8,88.07 165.8,88.06 169.99,85.17 
	164.11,114.68 160.08,115.21 158.13,125.58 153.71,130.24 188.44,121.2 190.21,111.32 171.47,113.73 173.79,111.07 174.68,105.81 
	182.88,104.84 184.87,93.42 174.74,94.29 177.35,91.91 177.96,87.31 "/>
<polygon class="st2" points="167.32,77.55 191.62,76.49 191.65,76.49 191.98,74.84 164.16,75.84 161.91,88.36 166.01,84.54 "/>
<polygon class="st2" points="160.08,115.21 164.11,114.68 169.99,85.17 165.8,88.06 165.8,88.07 160.93,112.75 156.92,113.37 
	153.71,130.24 158.13,125.58 "/>
<polygon class="st2" points="174.75,94.28 177.35,91.91 177.36,91.9 185.25,91.25 184.88,93.42 "/>
<polygon class="st2" points="190.21,111.32 190.23,111.32 190.66,108.95 173.8,111.07 173.79,111.07 171.48,113.73 "/>
<path class="st1" d="M198.72,85.37l1.38-0.16l3.15-2.16l-5.51,32.81l-3.49,4.12l0,0.02l10.35-2.97l2.64-14.18
	c7.66-1.06,16.88-10.78,18.11-28.15l-24.93,0.91L198.72,85.37z M209.02,93.21l1.32-8.81l6.11-0.37c0,0,2.69-2.76,3.31-3.36
	c-1.44,8.02-3.97,14.87-13.89,15.83C205.86,96.5,208.09,94.19,209.02,93.21"/>
<polygon class="st2" points="203.25,83.06 200.1,85.21 194.31,119.52 194.25,119.98 197.74,115.87 "/>
<path class="st2" d="M225.39,73.54c0.05,0.3-0.05,1.17-0.05,1.17l-24.93,0.91l-1.7,9.75v0l-2.87,0.22l1.79-11.05l27.81-1"/>
<path class="st2" d="M219.76,80.67c-0.61,0.61-3.31,3.37-3.31,3.37c-1.69,4.49-3.31,7.55-7.43,9.18c-0.93,0.98-3.16,3.29-3.16,3.29
	C215.78,95.54,218.31,88.69,219.76,80.67"/>
<path class="st1" d="M158.86,51.68l-5.26,0.16l-1.17,3.82l-7.84-0.01l-0.58,1.62c-19.96,0.83-34.17,4.64-47.17,11.62l41.32-2.16
	l3.7-4.16l-0.74,3.78l-4.11,4.21l10.61-0.41l4.85-4.57l-16.34,76.37l-5.3,4.7l13.77-4.4l14.08-72.31l8-0.15l1.1-4.01l52.53-0.93
	c-10.5-4.61-26.5-8.4-47.55-8.15l0.36-1.31l-15.9,0.25l4.94-3.51l0.54-2.85L158.86,51.68z"/>
<polygon class="st2" points="141.86,62.56 138.16,66.72 137.01,70.55 141.12,66.34 "/>
<polygon class="st2" points="152.48,65.57 147.63,70.13 147.62,70.13 130.84,146.64 136.14,141.94 "/>
<path class="st2" d="M144.58,55.64l7.84,0.01l1.17-3.82l5.26-0.16l3.87-2.41l0.21-1.27l-10.78,0.34l-1.18,3.82l-7.84-0.01l-0.58,1.6
	c-9.18,0.4-29.72,3.96-45.73,15.14c12.99-6.97,27.21-10.79,47.16-11.62L144.58,55.64z"/>
<path class="st2" d="M162.19,52.12h9.31l-0.3,1.28c21.79-0.4,42.63,7.57,49.13,11.45c-13.48-5.71-28.49-8.26-47.55-8.15l0.36-1.31
	l-15.9,0.25L162.19,52.12z"/>
<path class="st1" d="M155.06,138.94c0,1.3-1.05,2.34-2.35,2.34c-1.3,0-2.34-1.05-2.34-2.34c0-1.3,1.05-2.34,2.34-2.34
	C154,136.6,155.06,137.65,155.06,138.94 M154.51,138.94c0-1.04-0.81-1.88-1.81-1.88c-0.99,0-1.8,0.83-1.8,1.88
	c0,1.03,0.81,1.88,1.8,1.88C153.71,140.82,154.51,139.98,154.51,138.94 M153.24,139.26l0.49,0.9h-0.5l-0.41-0.83h-0.5v0.83h-0.47
	v-2.46h0.99c0.59,0,0.85,0.24,0.88,0.69c0.01,0.07,0.01,0.12,0,0.18C153.68,138.91,153.53,139.15,153.24,139.26 M152.82,138.9
	c0.26,0,0.41-0.13,0.43-0.34v-0.16c-0.02-0.19-0.16-0.3-0.43-0.3h-0.53v0.81H152.82z"/>
</svg>
