<?xml version="1.0" encoding="utf-8"?>
<!-- Generator: Adobe Illustrator 27.4.1, SVG Export Plug-In . SVG Version: 6.00 Build 0)  -->
<svg version="1.1" id="Layer_1" xmlns="http://www.w3.org/2000/svg" xmlns:xlink="http://www.w3.org/1999/xlink" x="0px" y="0px"
	 viewBox="0 0 300 200" style="enable-background:new 0 0 300 200;" xml:space="preserve">
<style type="text/css">
	.st0{fill:#4D4D4F;}
</style>
<path class="st0" d="M60.42,114.3c0,6.32-3.13,9.44-9.45,9.44H47.2c-6.32,0-9.44-3.12-9.44-9.44V72.45h7.77v41.49
	c0,2.03,0.95,2.98,2.98,2.98h1.23c1.96,0,2.9-0.95,2.9-2.98V72.45h7.78V114.3z"/>
<polygon class="st0" points="74.37,123.31 74.37,79.5 67.39,79.5 67.39,72.45 89.12,72.45 89.12,79.5 82.14,79.5 82.14,123.31 "/>
<polygon class="st0" points="126.68,72.45 126.68,79.5 117.16,79.5 117.16,93.89 126.31,93.89 126.31,100.93 117.16,100.93 
	117.16,116.27 126.82,116.27 126.82,123.31 109.38,123.31 109.38,72.45 "/>
<polygon class="st0" points="142.73,72.45 142.73,116.27 151.31,116.27 151.31,123.31 134.96,123.31 134.96,72.45 "/>
<path class="st0" d="M183.05,79.28h-3.2v18.74h3.2c1.96,0,2.9-0.94,2.9-2.98V82.26C185.96,80.23,185.02,79.28,183.05,79.28
	 M179.86,123.31h-7.77V72.45h12.2c6.32,0,9.45,3.12,9.45,9.44v13.51c0,6.32-3.12,9.45-9.45,9.45h-4.43V123.31z"/>
<path class="st0" d="M207.32,108.42h6.32l-3.2-25.72L207.32,108.42z M223.23,123.31h-7.7l-1.02-7.99h-8.06l-0.94,7.99h-7.19
	l7.27-50.93h10.32L223.23,123.31z"/>
<path class="st0" d="M252.07,106.02v8.28c0,6.32-3.12,9.44-9.45,9.44h-3.42c-6.32,0-9.37-3.12-9.37-9.37v-10.75h7.56v10.46
	c0,1.96,0.94,2.91,2.98,2.91h1.02c2.04,0,2.98-0.95,2.98-2.91v-6.97c0-2.11-0.73-3.05-2.18-4.14l-7.85-5.74
	c-3.49-2.47-4.51-4.87-4.51-8.79v-6.97c0-6.32,3.12-9.45,9.45-9.45h3.27c6.25,0,9.37,3.13,9.37,9.37v9.23h-7.63v-8.94
	c0-1.96-0.94-2.91-2.91-2.91h-0.94c-1.96,0-2.9,0.95-2.9,2.91v5.67c0,2.11,0.72,3.12,2.18,4.14l7.85,5.74
	C250.98,99.7,252.07,101.88,252.07,106.02"/>
<path class="st0" d="M272.49,78.85h-1.6c-2.03,0-2.98,0.95-2.98,2.98v32.12c0,2.03,0.95,2.98,2.98,2.98h1.6
	c1.96,0,2.9-0.94,2.9-2.98V81.83C275.39,79.79,274.45,78.85,272.49,78.85 M273.72,123.75h-4.14c-6.32,0-9.45-3.12-9.45-9.44V81.46
	c0-6.32,3.12-9.45,9.45-9.45h4.14c6.32,0,9.45,3.13,9.45,9.45v32.84C283.17,120.62,280.04,123.75,273.72,123.75"/>
</svg>
